%TF.GenerationSoftware,KiCad,Pcbnew,9.0.3*%
%TF.CreationDate,2025-08-22T13:10:08-04:00*%
%TF.ProjectId,PCB Transmission Line,50434220-5472-4616-9e73-6d697373696f,1*%
%TF.SameCoordinates,Original*%
%TF.FileFunction,Copper,L1,Top*%
%TF.FilePolarity,Positive*%
%FSLAX46Y46*%
G04 Gerber Fmt 4.6, Leading zero omitted, Abs format (unit mm)*
G04 Created by KiCad (PCBNEW 9.0.3) date 2025-08-22 13:10:08*
%MOMM*%
%LPD*%
G01*
G04 APERTURE LIST*
%TA.AperFunction,ComponentPad*%
%ADD10C,6.400000*%
%TD*%
%TA.AperFunction,ComponentPad*%
%ADD11C,1.600000*%
%TD*%
%TA.AperFunction,ViaPad*%
%ADD12C,0.700000*%
%TD*%
%TA.AperFunction,Conductor*%
%ADD13C,0.850000*%
%TD*%
G04 APERTURE END LIST*
D10*
%TO.P,H2,1,1*%
%TO.N,GND*%
X55000000Y-55000000D03*
%TD*%
D11*
%TO.P,J2,1,1*%
%TO.N,Net-(J1-Pad1)*%
X78200000Y-63300000D03*
%TO.P,J2,2,2*%
%TO.N,GND*%
X75700000Y-63300000D03*
%TD*%
D10*
%TO.P,H1,1,1*%
%TO.N,GND*%
X55000000Y-145000000D03*
%TD*%
%TO.P,H4,1,1*%
%TO.N,GND*%
X245000000Y-145000000D03*
%TD*%
%TO.P,H3,1,1*%
%TO.N,GND*%
X245000000Y-55000000D03*
%TD*%
D11*
%TO.P,J3,1,1*%
%TO.N,Net-(J1-Pad1)*%
X236450000Y-130000000D03*
%TO.P,J3,2,2*%
%TO.N,GND*%
X236450000Y-127500000D03*
%TD*%
%TO.P,J1,1,1*%
%TO.N,Net-(J1-Pad1)*%
X63300000Y-72450000D03*
%TO.P,J1,2,2*%
%TO.N,GND*%
X63300000Y-74950000D03*
%TD*%
D12*
%TO.N,GND*%
X115000000Y-55000000D03*
X125000000Y-130000000D03*
X230000000Y-130000000D03*
X160000000Y-60000000D03*
X100000000Y-75000000D03*
X75000000Y-125000000D03*
X60000000Y-145000000D03*
X75000000Y-115000000D03*
X145000000Y-145000000D03*
X100000000Y-70000000D03*
X120000000Y-65000000D03*
X60000000Y-95000000D03*
X225000000Y-125000000D03*
X175000000Y-60000000D03*
X200000000Y-95000000D03*
X225000000Y-120000000D03*
X125000000Y-120000000D03*
X245000000Y-130000000D03*
X90000000Y-95000000D03*
X120000000Y-95000000D03*
X105000000Y-85000000D03*
X80000000Y-75000000D03*
X205000000Y-85000000D03*
X60000000Y-100000000D03*
X95000000Y-120000000D03*
X150000000Y-90000000D03*
X210000000Y-115000000D03*
X115000000Y-115000000D03*
X115000000Y-100000000D03*
X225000000Y-95000000D03*
X65000000Y-60000000D03*
X170000000Y-110000000D03*
X70000000Y-115000000D03*
X220000000Y-60000000D03*
X185000000Y-135000000D03*
X100000000Y-140000000D03*
X135000000Y-70000000D03*
X230000000Y-65000000D03*
X85000000Y-60000000D03*
X140000000Y-135000000D03*
X180000000Y-125000000D03*
X205000000Y-115000000D03*
X220000000Y-95000000D03*
X225000000Y-90000000D03*
X120000000Y-120000000D03*
X125000000Y-140000000D03*
X215000000Y-140000000D03*
X115000000Y-125000000D03*
X100000000Y-130000000D03*
X115000000Y-85000000D03*
X95000000Y-130000000D03*
X135000000Y-120000000D03*
X145000000Y-105000000D03*
X235000000Y-105000000D03*
X180000000Y-85000000D03*
X55000000Y-70000000D03*
X180000000Y-100000000D03*
X215000000Y-95000000D03*
X190000000Y-55000000D03*
X240000000Y-130000000D03*
X85000000Y-75000000D03*
X75000000Y-70000000D03*
X125000000Y-110000000D03*
X215000000Y-135000000D03*
X210000000Y-80000000D03*
X240000000Y-105000000D03*
X120000000Y-145000000D03*
X70000000Y-55000000D03*
X105000000Y-100000000D03*
X180000000Y-60000000D03*
X225000000Y-115000000D03*
X135000000Y-115000000D03*
X220000000Y-110000000D03*
X215000000Y-110000000D03*
X55000000Y-140000000D03*
X95000000Y-55000000D03*
X95000000Y-115000000D03*
X185000000Y-80000000D03*
X190000000Y-135000000D03*
X155000000Y-85000000D03*
X115000000Y-80000000D03*
X165000000Y-60000000D03*
X205000000Y-140000000D03*
X160000000Y-115000000D03*
X155000000Y-110000000D03*
X110000000Y-135000000D03*
X90000000Y-125000000D03*
X205000000Y-120000000D03*
X155000000Y-80000000D03*
X175000000Y-80000000D03*
X105000000Y-60000000D03*
X190000000Y-75000000D03*
X195000000Y-130000000D03*
X140000000Y-75000000D03*
X215000000Y-60000000D03*
X200000000Y-75000000D03*
X155000000Y-70000000D03*
X155000000Y-135000000D03*
X140000000Y-85000000D03*
X90000000Y-75000000D03*
X140000000Y-95000000D03*
X130000000Y-95000000D03*
X220000000Y-135000000D03*
X75000000Y-145000000D03*
X235000000Y-100000000D03*
X55000000Y-115000000D03*
X55000000Y-110000000D03*
X65000000Y-100000000D03*
X175000000Y-130000000D03*
X75000000Y-130000000D03*
X100000000Y-120000000D03*
X75000000Y-135000000D03*
X110000000Y-60000000D03*
X80000000Y-65000000D03*
X135000000Y-110000000D03*
X210000000Y-130000000D03*
X70000000Y-110000000D03*
X245000000Y-75000000D03*
X150000000Y-60000000D03*
X130000000Y-145000000D03*
X90000000Y-110000000D03*
X190000000Y-140000000D03*
X185000000Y-70000000D03*
X215000000Y-70000000D03*
X135000000Y-140000000D03*
X70000000Y-145000000D03*
X160000000Y-80000000D03*
X70000000Y-100000000D03*
X60000000Y-85000000D03*
X195000000Y-70000000D03*
X235000000Y-135000000D03*
X100000000Y-65000000D03*
X205000000Y-135000000D03*
X245000000Y-120000000D03*
X110000000Y-90000000D03*
X70000000Y-70000000D03*
X220000000Y-55000000D03*
X200000000Y-85000000D03*
X125000000Y-70000000D03*
X105000000Y-125000000D03*
X180000000Y-140000000D03*
X105000000Y-105000000D03*
X80000000Y-130000000D03*
X155000000Y-105000000D03*
X90000000Y-135000000D03*
X170000000Y-95000000D03*
X55000000Y-130000000D03*
X155000000Y-125000000D03*
X180000000Y-120000000D03*
X55000000Y-125000000D03*
X105000000Y-135000000D03*
X110000000Y-85000000D03*
X60000000Y-135000000D03*
X145000000Y-80000000D03*
X105000000Y-115000000D03*
X160000000Y-85000000D03*
X195000000Y-80000000D03*
X130000000Y-100000000D03*
X65000000Y-55000000D03*
X85000000Y-125000000D03*
X75000000Y-85000000D03*
X240000000Y-80000000D03*
X150000000Y-100000000D03*
X170000000Y-100000000D03*
X145000000Y-140000000D03*
X150000000Y-130000000D03*
X140000000Y-100000000D03*
X195000000Y-115000000D03*
X140000000Y-70000000D03*
X205000000Y-130000000D03*
X170000000Y-135000000D03*
X120000000Y-115000000D03*
X230000000Y-85000000D03*
X80000000Y-70000000D03*
X85000000Y-115000000D03*
X150000000Y-95000000D03*
X145000000Y-90000000D03*
X105000000Y-130000000D03*
X55000000Y-105000000D03*
X80000000Y-125000000D03*
X220000000Y-80000000D03*
X170000000Y-70000000D03*
X135000000Y-105000000D03*
X240000000Y-65000000D03*
X75000000Y-105000000D03*
X245000000Y-90000000D03*
X220000000Y-130000000D03*
X150000000Y-145000000D03*
X120000000Y-55000000D03*
X240000000Y-100000000D03*
X175000000Y-55000000D03*
X170000000Y-85000000D03*
X165000000Y-130000000D03*
X75000000Y-140000000D03*
X105000000Y-110000000D03*
X75000000Y-95000000D03*
X100000000Y-55000000D03*
X120000000Y-130000000D03*
X90000000Y-145000000D03*
X200000000Y-100000000D03*
X85000000Y-90000000D03*
X240000000Y-55000000D03*
X145000000Y-115000000D03*
X210000000Y-145000000D03*
X55000000Y-60000000D03*
X170000000Y-75000000D03*
X85000000Y-130000000D03*
X125000000Y-100000000D03*
X245000000Y-100000000D03*
X190000000Y-110000000D03*
X155000000Y-95000000D03*
X220000000Y-90000000D03*
X145000000Y-130000000D03*
X195000000Y-60000000D03*
X210000000Y-110000000D03*
X220000000Y-125000000D03*
X225000000Y-65000000D03*
X165000000Y-115000000D03*
X125000000Y-80000000D03*
X165000000Y-65000000D03*
X205000000Y-90000000D03*
X90000000Y-80000000D03*
X180000000Y-95000000D03*
X190000000Y-60000000D03*
X160000000Y-120000000D03*
X60000000Y-105000000D03*
X230000000Y-55000000D03*
X100000000Y-135000000D03*
X100000000Y-100000000D03*
X140000000Y-105000000D03*
X185000000Y-60000000D03*
X65000000Y-135000000D03*
X245000000Y-65000000D03*
X225000000Y-110000000D03*
X135000000Y-100000000D03*
X230000000Y-80000000D03*
X155000000Y-120000000D03*
X130000000Y-135000000D03*
X145000000Y-75000000D03*
X175000000Y-140000000D03*
X235000000Y-60000000D03*
X130000000Y-70000000D03*
X185000000Y-55000000D03*
X215000000Y-65000000D03*
X205000000Y-70000000D03*
X220000000Y-65000000D03*
X235000000Y-90000000D03*
X60000000Y-110000000D03*
X65000000Y-80000000D03*
X65000000Y-65000000D03*
X145000000Y-125000000D03*
X180000000Y-70000000D03*
X210000000Y-100000000D03*
X200000000Y-125000000D03*
X150000000Y-110000000D03*
X185000000Y-90000000D03*
X100000000Y-80000000D03*
X150000000Y-125000000D03*
X70000000Y-140000000D03*
X100000000Y-105000000D03*
X210000000Y-120000000D03*
X240000000Y-70000000D03*
X100000000Y-125000000D03*
X110000000Y-105000000D03*
X240000000Y-85000000D03*
X90000000Y-85000000D03*
X85000000Y-55000000D03*
X140000000Y-60000000D03*
X150000000Y-85000000D03*
X80000000Y-110000000D03*
X210000000Y-95000000D03*
X210000000Y-55000000D03*
X235000000Y-65000000D03*
X70000000Y-120000000D03*
X85000000Y-120000000D03*
X235000000Y-110000000D03*
X55000000Y-85000000D03*
X240000000Y-90000000D03*
X175000000Y-100000000D03*
X170000000Y-90000000D03*
X185000000Y-75000000D03*
X195000000Y-85000000D03*
X125000000Y-135000000D03*
X240000000Y-60000000D03*
X205000000Y-60000000D03*
X150000000Y-75000000D03*
X125000000Y-65000000D03*
X205000000Y-95000000D03*
X210000000Y-85000000D03*
X95000000Y-90000000D03*
X110000000Y-120000000D03*
X75000000Y-90000000D03*
X175000000Y-90000000D03*
X175000000Y-145000000D03*
X195000000Y-75000000D03*
X155000000Y-100000000D03*
X245000000Y-115000000D03*
X65000000Y-115000000D03*
X225000000Y-105000000D03*
X105000000Y-55000000D03*
X115000000Y-145000000D03*
X155000000Y-90000000D03*
X125000000Y-55000000D03*
X125000000Y-95000000D03*
X130000000Y-90000000D03*
X120000000Y-75000000D03*
X215000000Y-85000000D03*
X235000000Y-130000000D03*
X95000000Y-95000000D03*
X210000000Y-135000000D03*
X200000000Y-65000000D03*
X230000000Y-95000000D03*
X205000000Y-80000000D03*
X220000000Y-75000000D03*
X190000000Y-120000000D03*
X230000000Y-125000000D03*
X165000000Y-95000000D03*
X155000000Y-115000000D03*
X75000000Y-100000000D03*
X180000000Y-135000000D03*
X75000000Y-55000000D03*
X60000000Y-65000000D03*
X225000000Y-85000000D03*
X175000000Y-65000000D03*
X210000000Y-140000000D03*
X230000000Y-70000000D03*
X200000000Y-135000000D03*
X165000000Y-145000000D03*
X145000000Y-55000000D03*
X205000000Y-100000000D03*
X100000000Y-145000000D03*
X190000000Y-100000000D03*
X190000000Y-80000000D03*
X205000000Y-65000000D03*
X175000000Y-105000000D03*
X95000000Y-65000000D03*
X160000000Y-100000000D03*
X95000000Y-85000000D03*
X215000000Y-80000000D03*
X180000000Y-80000000D03*
X55000000Y-120000000D03*
X85000000Y-145000000D03*
X80000000Y-85000000D03*
X195000000Y-135000000D03*
X125000000Y-125000000D03*
X140000000Y-110000000D03*
X55000000Y-90000000D03*
X90000000Y-140000000D03*
X175000000Y-115000000D03*
X215000000Y-145000000D03*
X70000000Y-85000000D03*
X210000000Y-125000000D03*
X95000000Y-110000000D03*
X110000000Y-65000000D03*
X115000000Y-130000000D03*
X160000000Y-70000000D03*
X160000000Y-125000000D03*
X80000000Y-90000000D03*
X140000000Y-115000000D03*
X165000000Y-85000000D03*
X145000000Y-135000000D03*
X180000000Y-105000000D03*
X100000000Y-115000000D03*
X70000000Y-60000000D03*
X135000000Y-60000000D03*
X215000000Y-125000000D03*
X100000000Y-60000000D03*
X85000000Y-140000000D03*
X200000000Y-115000000D03*
X120000000Y-90000000D03*
X195000000Y-145000000D03*
X235000000Y-145000000D03*
X80000000Y-80000000D03*
X220000000Y-115000000D03*
X150000000Y-120000000D03*
X175000000Y-70000000D03*
X155000000Y-140000000D03*
X160000000Y-135000000D03*
X60000000Y-80000000D03*
X175000000Y-85000000D03*
X105000000Y-80000000D03*
X110000000Y-145000000D03*
X185000000Y-120000000D03*
X235000000Y-75000000D03*
X60000000Y-70000000D03*
X200000000Y-60000000D03*
X155000000Y-75000000D03*
X215000000Y-105000000D03*
X190000000Y-85000000D03*
X60000000Y-75000000D03*
X145000000Y-85000000D03*
X195000000Y-110000000D03*
X115000000Y-140000000D03*
X190000000Y-70000000D03*
X90000000Y-90000000D03*
X65000000Y-120000000D03*
X245000000Y-95000000D03*
X120000000Y-140000000D03*
X60000000Y-125000000D03*
X135000000Y-145000000D03*
X245000000Y-60000000D03*
X195000000Y-100000000D03*
X235000000Y-85000000D03*
X165000000Y-90000000D03*
X190000000Y-65000000D03*
X105000000Y-145000000D03*
X215000000Y-100000000D03*
X160000000Y-145000000D03*
X65000000Y-130000000D03*
X150000000Y-115000000D03*
X155000000Y-60000000D03*
X170000000Y-60000000D03*
X225000000Y-145000000D03*
X210000000Y-105000000D03*
X140000000Y-145000000D03*
X115000000Y-70000000D03*
X60000000Y-140000000D03*
X200000000Y-105000000D03*
X90000000Y-105000000D03*
X240000000Y-145000000D03*
X135000000Y-75000000D03*
X65000000Y-105000000D03*
X145000000Y-100000000D03*
X245000000Y-125000000D03*
X180000000Y-115000000D03*
X70000000Y-75000000D03*
X200000000Y-80000000D03*
X80000000Y-140000000D03*
X200000000Y-120000000D03*
X180000000Y-130000000D03*
X110000000Y-100000000D03*
X85000000Y-100000000D03*
X200000000Y-55000000D03*
X60000000Y-60000000D03*
X170000000Y-120000000D03*
X80000000Y-55000000D03*
X140000000Y-130000000D03*
X200000000Y-110000000D03*
X205000000Y-110000000D03*
X170000000Y-140000000D03*
X165000000Y-100000000D03*
X130000000Y-65000000D03*
X170000000Y-105000000D03*
X115000000Y-75000000D03*
X185000000Y-95000000D03*
X95000000Y-140000000D03*
X225000000Y-135000000D03*
X125000000Y-85000000D03*
X90000000Y-120000000D03*
X220000000Y-140000000D03*
X180000000Y-65000000D03*
X125000000Y-90000000D03*
X115000000Y-65000000D03*
X115000000Y-60000000D03*
X75000000Y-80000000D03*
X160000000Y-140000000D03*
X160000000Y-105000000D03*
X185000000Y-100000000D03*
X165000000Y-70000000D03*
X170000000Y-55000000D03*
X245000000Y-80000000D03*
X195000000Y-105000000D03*
X130000000Y-85000000D03*
X135000000Y-125000000D03*
X110000000Y-95000000D03*
X150000000Y-55000000D03*
X215000000Y-130000000D03*
X120000000Y-125000000D03*
X170000000Y-130000000D03*
X95000000Y-80000000D03*
X95000000Y-100000000D03*
X240000000Y-115000000D03*
X180000000Y-145000000D03*
X125000000Y-105000000D03*
X220000000Y-105000000D03*
X175000000Y-135000000D03*
X85000000Y-85000000D03*
X105000000Y-120000000D03*
X135000000Y-90000000D03*
X100000000Y-85000000D03*
X225000000Y-70000000D03*
X70000000Y-80000000D03*
X150000000Y-135000000D03*
X55000000Y-100000000D03*
X200000000Y-145000000D03*
X85000000Y-110000000D03*
X135000000Y-55000000D03*
X125000000Y-60000000D03*
X160000000Y-110000000D03*
X225000000Y-75000000D03*
X170000000Y-125000000D03*
X245000000Y-105000000D03*
X230000000Y-145000000D03*
X85000000Y-80000000D03*
X235000000Y-55000000D03*
X75000000Y-65000000D03*
X130000000Y-140000000D03*
X175000000Y-120000000D03*
X140000000Y-55000000D03*
X240000000Y-75000000D03*
X85000000Y-70000000D03*
X65000000Y-70000000D03*
X230000000Y-90000000D03*
X120000000Y-85000000D03*
X115000000Y-110000000D03*
X145000000Y-70000000D03*
X105000000Y-95000000D03*
X205000000Y-55000000D03*
X245000000Y-85000000D03*
X95000000Y-135000000D03*
X110000000Y-70000000D03*
X165000000Y-105000000D03*
X155000000Y-55000000D03*
X75000000Y-60000000D03*
X225000000Y-130000000D03*
X235000000Y-140000000D03*
X235000000Y-120000000D03*
X185000000Y-145000000D03*
X115000000Y-105000000D03*
X110000000Y-140000000D03*
X135000000Y-85000000D03*
X200000000Y-140000000D03*
X100000000Y-90000000D03*
X185000000Y-105000000D03*
X55000000Y-135000000D03*
X145000000Y-65000000D03*
X165000000Y-140000000D03*
X155000000Y-130000000D03*
X80000000Y-145000000D03*
X235000000Y-125000000D03*
X215000000Y-90000000D03*
X195000000Y-120000000D03*
X190000000Y-90000000D03*
X130000000Y-75000000D03*
X225000000Y-140000000D03*
X245000000Y-140000000D03*
X150000000Y-80000000D03*
X180000000Y-75000000D03*
X230000000Y-110000000D03*
X230000000Y-120000000D03*
X105000000Y-65000000D03*
X95000000Y-105000000D03*
X80000000Y-100000000D03*
X190000000Y-145000000D03*
X170000000Y-80000000D03*
X220000000Y-70000000D03*
X125000000Y-75000000D03*
X170000000Y-145000000D03*
X70000000Y-95000000D03*
X75000000Y-120000000D03*
X200000000Y-130000000D03*
X180000000Y-110000000D03*
X65000000Y-145000000D03*
X120000000Y-80000000D03*
X185000000Y-125000000D03*
X195000000Y-95000000D03*
X85000000Y-95000000D03*
X100000000Y-95000000D03*
X130000000Y-115000000D03*
X130000000Y-110000000D03*
X75000000Y-75000000D03*
X235000000Y-115000000D03*
X80000000Y-95000000D03*
X225000000Y-60000000D03*
X200000000Y-90000000D03*
X185000000Y-130000000D03*
X110000000Y-55000000D03*
X205000000Y-145000000D03*
X230000000Y-60000000D03*
X195000000Y-125000000D03*
X65000000Y-110000000D03*
X165000000Y-55000000D03*
X190000000Y-125000000D03*
X245000000Y-70000000D03*
X245000000Y-110000000D03*
X145000000Y-95000000D03*
X165000000Y-110000000D03*
X65000000Y-125000000D03*
X90000000Y-130000000D03*
X155000000Y-65000000D03*
X240000000Y-140000000D03*
X170000000Y-115000000D03*
X145000000Y-110000000D03*
X210000000Y-90000000D03*
X175000000Y-110000000D03*
X105000000Y-70000000D03*
X140000000Y-120000000D03*
X120000000Y-60000000D03*
X85000000Y-105000000D03*
X235000000Y-80000000D03*
X160000000Y-65000000D03*
X130000000Y-60000000D03*
X150000000Y-65000000D03*
X100000000Y-110000000D03*
X110000000Y-80000000D03*
X80000000Y-60000000D03*
X55000000Y-95000000D03*
X230000000Y-140000000D03*
X55000000Y-75000000D03*
X140000000Y-90000000D03*
X60000000Y-120000000D03*
X165000000Y-75000000D03*
X195000000Y-140000000D03*
X185000000Y-140000000D03*
X160000000Y-95000000D03*
X135000000Y-65000000D03*
X230000000Y-105000000D03*
X125000000Y-145000000D03*
X140000000Y-80000000D03*
X65000000Y-75000000D03*
X215000000Y-115000000D03*
X80000000Y-115000000D03*
X130000000Y-80000000D03*
X230000000Y-115000000D03*
X120000000Y-100000000D03*
X115000000Y-90000000D03*
X220000000Y-100000000D03*
X225000000Y-80000000D03*
X235000000Y-95000000D03*
X85000000Y-65000000D03*
X170000000Y-65000000D03*
X70000000Y-130000000D03*
X90000000Y-100000000D03*
X70000000Y-105000000D03*
X200000000Y-70000000D03*
X115000000Y-95000000D03*
X185000000Y-110000000D03*
X110000000Y-75000000D03*
X195000000Y-90000000D03*
X225000000Y-100000000D03*
X115000000Y-120000000D03*
X65000000Y-90000000D03*
X230000000Y-100000000D03*
X105000000Y-90000000D03*
X210000000Y-75000000D03*
X155000000Y-145000000D03*
X115000000Y-135000000D03*
X165000000Y-120000000D03*
X150000000Y-140000000D03*
X195000000Y-65000000D03*
X130000000Y-120000000D03*
X165000000Y-125000000D03*
X165000000Y-135000000D03*
X245000000Y-135000000D03*
X220000000Y-145000000D03*
X55000000Y-65000000D03*
X180000000Y-55000000D03*
X135000000Y-80000000D03*
X175000000Y-95000000D03*
X175000000Y-75000000D03*
X240000000Y-120000000D03*
X125000000Y-115000000D03*
X120000000Y-110000000D03*
X85000000Y-135000000D03*
X240000000Y-95000000D03*
X230000000Y-75000000D03*
X70000000Y-135000000D03*
X110000000Y-115000000D03*
X160000000Y-130000000D03*
X140000000Y-125000000D03*
X190000000Y-95000000D03*
X215000000Y-55000000D03*
X110000000Y-110000000D03*
X75000000Y-110000000D03*
X185000000Y-115000000D03*
X60000000Y-55000000D03*
X195000000Y-55000000D03*
X130000000Y-125000000D03*
X110000000Y-125000000D03*
X70000000Y-125000000D03*
X220000000Y-85000000D03*
X60000000Y-115000000D03*
X110000000Y-130000000D03*
X120000000Y-70000000D03*
X70000000Y-65000000D03*
X60000000Y-130000000D03*
X140000000Y-65000000D03*
X120000000Y-105000000D03*
X220000000Y-120000000D03*
X65000000Y-85000000D03*
X240000000Y-110000000D03*
X130000000Y-130000000D03*
X60000000Y-90000000D03*
X225000000Y-55000000D03*
X210000000Y-70000000D03*
X65000000Y-95000000D03*
X215000000Y-120000000D03*
X105000000Y-140000000D03*
X80000000Y-135000000D03*
X135000000Y-95000000D03*
X175000000Y-125000000D03*
X160000000Y-90000000D03*
X95000000Y-145000000D03*
X130000000Y-55000000D03*
X205000000Y-75000000D03*
X120000000Y-135000000D03*
X165000000Y-80000000D03*
X185000000Y-65000000D03*
X230000000Y-135000000D03*
X190000000Y-105000000D03*
X80000000Y-120000000D03*
X210000000Y-60000000D03*
X190000000Y-130000000D03*
X185000000Y-85000000D03*
X90000000Y-115000000D03*
X235000000Y-70000000D03*
X160000000Y-75000000D03*
X205000000Y-125000000D03*
X65000000Y-140000000D03*
X135000000Y-130000000D03*
X190000000Y-115000000D03*
X205000000Y-105000000D03*
X215000000Y-75000000D03*
X80000000Y-105000000D03*
X145000000Y-120000000D03*
X180000000Y-90000000D03*
X210000000Y-65000000D03*
X140000000Y-140000000D03*
X95000000Y-75000000D03*
X150000000Y-105000000D03*
X145000000Y-60000000D03*
X55000000Y-80000000D03*
X135000000Y-135000000D03*
X95000000Y-125000000D03*
X150000000Y-70000000D03*
X105000000Y-75000000D03*
X70000000Y-90000000D03*
X130000000Y-105000000D03*
X160000000Y-55000000D03*
%TD*%
D13*
%TO.N,Net-(J1-Pad1)*%
X70000000Y-77500000D02*
X245000000Y-77500000D01*
X55000000Y-107500000D02*
X245000000Y-107500000D01*
X245000000Y-82500000D02*
X70000000Y-82500000D01*
X55000000Y-127500000D02*
X230000000Y-127500000D01*
X236450000Y-130000000D02*
X236450000Y-141050000D01*
X63300000Y-72450000D02*
X78205185Y-72450000D01*
X78200000Y-63300000D02*
X78200000Y-72444815D01*
X235000000Y-142500000D02*
X65000000Y-142500000D01*
X65000000Y-137500000D02*
X230000000Y-137500000D01*
X87550000Y-72450000D02*
X78205185Y-72450000D01*
X97500000Y-57500000D02*
X235000000Y-57500000D01*
X235000000Y-52500000D02*
X92500000Y-52500000D01*
X55000000Y-97500000D02*
X245000000Y-97500000D01*
X245000000Y-72500000D02*
X97500000Y-72500000D01*
X230000000Y-122500000D02*
X55000000Y-122500000D01*
X90000000Y-55000000D02*
X90000000Y-70000000D01*
X245000000Y-102500000D02*
X55000000Y-102500000D01*
X245000000Y-112500000D02*
X55000000Y-112500000D01*
X230000000Y-132500000D02*
X55000000Y-132500000D01*
X245000000Y-62500000D02*
X97500000Y-62500000D01*
X55000000Y-87500000D02*
X245000000Y-87500000D01*
X97500000Y-67500000D02*
X245000000Y-67500000D01*
X55000000Y-117500000D02*
X245000000Y-117500000D01*
X245000000Y-92500000D02*
X55000000Y-92500000D01*
X245000000Y-117500000D02*
G75*
G03*
X247500000Y-115000000I0J2500000D01*
G01*
X230000000Y-137500000D02*
G75*
G03*
X232500000Y-135000000I0J2500000D01*
G01*
X52500000Y-120000000D02*
G75*
G02*
X55000000Y-117500000I2500000J0D01*
G01*
X78200000Y-72444815D02*
G75*
G03*
X78205185Y-72450000I5200J15D01*
G01*
X65000000Y-142500000D02*
G75*
G02*
X62500000Y-140000000I0J2500000D01*
G01*
X95000000Y-60000000D02*
G75*
G02*
X97500000Y-57500000I2500000J0D01*
G01*
X245000000Y-107500000D02*
G75*
G03*
X247500000Y-105000000I0J2500000D01*
G01*
X232500000Y-135000000D02*
G75*
G03*
X230000000Y-132500000I-2500000J0D01*
G01*
X67500000Y-80000000D02*
G75*
G02*
X70000000Y-77500000I2500000J0D01*
G01*
X245000000Y-77500000D02*
G75*
G03*
X247500000Y-75000000I0J2500000D01*
G01*
X97500000Y-62500000D02*
G75*
G02*
X95000000Y-60000000I0J2500000D01*
G01*
X55000000Y-122500000D02*
G75*
G02*
X52500000Y-120000000I0J2500000D01*
G01*
X230000000Y-127500000D02*
G75*
G03*
X232500000Y-125000000I0J2500000D01*
G01*
X237500000Y-55000000D02*
G75*
G03*
X235000000Y-52500000I-2500000J0D01*
G01*
X95000000Y-70000000D02*
G75*
G02*
X97500000Y-67500000I2500000J0D01*
G01*
X70000000Y-82500000D02*
G75*
G02*
X67500000Y-80000000I0J2500000D01*
G01*
X97500000Y-72500000D02*
G75*
G02*
X95000000Y-70000000I0J2500000D01*
G01*
X236450000Y-141050000D02*
G75*
G02*
X235000000Y-142500000I-1450000J0D01*
G01*
X232500000Y-125000000D02*
G75*
G03*
X230000000Y-122500000I-2500000J0D01*
G01*
X247500000Y-95000000D02*
G75*
G03*
X245000000Y-92500000I-2500000J0D01*
G01*
X247500000Y-85000000D02*
G75*
G03*
X245000000Y-82500000I-2500000J0D01*
G01*
X245000000Y-67500000D02*
G75*
G03*
X247500000Y-65000000I0J2500000D01*
G01*
X52500000Y-90000000D02*
G75*
G02*
X55000000Y-87500000I2500000J0D01*
G01*
X55000000Y-92500000D02*
G75*
G02*
X52500000Y-90000000I0J2500000D01*
G01*
X247500000Y-115000000D02*
G75*
G03*
X245000000Y-112500000I-2500000J0D01*
G01*
X247500000Y-105000000D02*
G75*
G03*
X245000000Y-102500000I-2500000J0D01*
G01*
X55000000Y-132500000D02*
G75*
G02*
X52500000Y-130000000I0J2500000D01*
G01*
X52500000Y-110000000D02*
G75*
G02*
X55000000Y-107500000I2500000J0D01*
G01*
X55000000Y-112500000D02*
G75*
G02*
X52500000Y-110000000I0J2500000D01*
G01*
X245000000Y-97500000D02*
G75*
G03*
X247500000Y-95000000I0J2500000D01*
G01*
X90000000Y-70000000D02*
G75*
G02*
X87550000Y-72450000I-2450000J0D01*
G01*
X235000000Y-57500000D02*
G75*
G03*
X237500000Y-55000000I0J2500000D01*
G01*
X247500000Y-65000000D02*
G75*
G03*
X245000000Y-62500000I-2500000J0D01*
G01*
X245000000Y-87500000D02*
G75*
G03*
X247500000Y-85000000I0J2500000D01*
G01*
X55000000Y-102500000D02*
G75*
G02*
X52500000Y-100000000I0J2500000D01*
G01*
X247500000Y-75000000D02*
G75*
G03*
X245000000Y-72500000I-2500000J0D01*
G01*
X62500000Y-140000000D02*
G75*
G02*
X65000000Y-137500000I2500000J0D01*
G01*
X92500000Y-52500000D02*
G75*
G03*
X90000000Y-55000000I0J-2500000D01*
G01*
X52500000Y-130000000D02*
G75*
G02*
X55000000Y-127500000I2500000J0D01*
G01*
X52500000Y-100000000D02*
G75*
G02*
X55000000Y-97500000I2500000J0D01*
G01*
%TD*%
%TA.AperFunction,Conductor*%
%TO.N,GND*%
G36*
X245002152Y-50500593D02*
G01*
X245387853Y-50517434D01*
X245396432Y-50518184D01*
X245777053Y-50568295D01*
X245785544Y-50569792D01*
X246160338Y-50652881D01*
X246168673Y-50655115D01*
X246534797Y-50770553D01*
X246542913Y-50773507D01*
X246897587Y-50920418D01*
X246905398Y-50924060D01*
X247245910Y-51101320D01*
X247253390Y-51105638D01*
X247577167Y-51311906D01*
X247584241Y-51316860D01*
X247888797Y-51550554D01*
X247895398Y-51556093D01*
X248178459Y-51815470D01*
X248184529Y-51821540D01*
X248443905Y-52104599D01*
X248449445Y-52111202D01*
X248683139Y-52415758D01*
X248688093Y-52422832D01*
X248894361Y-52746609D01*
X248898679Y-52754089D01*
X249075935Y-53094593D01*
X249079585Y-53102420D01*
X249226492Y-53457086D01*
X249229446Y-53465202D01*
X249344884Y-53831326D01*
X249347119Y-53839668D01*
X249430205Y-54214445D01*
X249431705Y-54222951D01*
X249481813Y-54603554D01*
X249482566Y-54612158D01*
X249499406Y-54997847D01*
X249499500Y-55002165D01*
X249499500Y-144997834D01*
X249499406Y-145002152D01*
X249482566Y-145387841D01*
X249481813Y-145396445D01*
X249431705Y-145777048D01*
X249430205Y-145785554D01*
X249347119Y-146160331D01*
X249344884Y-146168673D01*
X249229446Y-146534797D01*
X249226492Y-146542913D01*
X249079585Y-146897579D01*
X249075935Y-146905406D01*
X248898679Y-147245910D01*
X248894361Y-147253390D01*
X248688093Y-147577167D01*
X248683139Y-147584241D01*
X248449445Y-147888797D01*
X248443895Y-147895411D01*
X248184540Y-148178447D01*
X248178447Y-148184540D01*
X248162727Y-148198946D01*
X247895413Y-148443894D01*
X247888797Y-148449445D01*
X247584241Y-148683139D01*
X247577167Y-148688093D01*
X247253390Y-148894361D01*
X247245910Y-148898679D01*
X246905406Y-149075935D01*
X246897579Y-149079585D01*
X246542913Y-149226492D01*
X246534797Y-149229446D01*
X246168673Y-149344884D01*
X246160331Y-149347119D01*
X245785554Y-149430205D01*
X245777048Y-149431705D01*
X245396445Y-149481813D01*
X245387841Y-149482566D01*
X245002153Y-149499406D01*
X244997835Y-149499500D01*
X55002165Y-149499500D01*
X54997847Y-149499406D01*
X54612158Y-149482566D01*
X54603554Y-149481813D01*
X54222951Y-149431705D01*
X54214445Y-149430205D01*
X53839668Y-149347119D01*
X53831326Y-149344884D01*
X53465202Y-149229446D01*
X53457086Y-149226492D01*
X53102420Y-149079585D01*
X53094593Y-149075935D01*
X52754089Y-148898679D01*
X52746609Y-148894361D01*
X52422832Y-148688093D01*
X52415758Y-148683139D01*
X52111202Y-148449445D01*
X52104599Y-148443905D01*
X51821540Y-148184529D01*
X51815470Y-148178459D01*
X51556093Y-147895398D01*
X51550554Y-147888797D01*
X51316860Y-147584241D01*
X51311906Y-147577167D01*
X51105638Y-147253390D01*
X51101320Y-147245910D01*
X50924064Y-146905406D01*
X50920414Y-146897579D01*
X50773507Y-146542913D01*
X50770553Y-146534797D01*
X50655115Y-146168673D01*
X50652880Y-146160331D01*
X50569794Y-145785554D01*
X50568294Y-145777048D01*
X50555643Y-145680953D01*
X50518184Y-145396432D01*
X50517434Y-145387853D01*
X50500594Y-145002152D01*
X50500500Y-144997834D01*
X50500500Y-89836199D01*
X51874500Y-89836199D01*
X51874500Y-89924051D01*
X51874500Y-90000000D01*
X51874500Y-90163801D01*
X51908744Y-90489607D01*
X51976856Y-90810049D01*
X52078090Y-91121616D01*
X52117808Y-91210825D01*
X52211335Y-91420889D01*
X52211336Y-91420891D01*
X52211338Y-91420894D01*
X52375138Y-91704605D01*
X52486922Y-91858463D01*
X52567698Y-91969642D01*
X52785320Y-92211335D01*
X52786905Y-92213095D01*
X52786915Y-92213104D01*
X52786916Y-92213105D01*
X53030357Y-92432301D01*
X53030360Y-92432303D01*
X53295395Y-92624862D01*
X53579106Y-92788662D01*
X53878384Y-92921910D01*
X54189951Y-93023144D01*
X54510393Y-93091256D01*
X54836199Y-93125500D01*
X54938394Y-93125500D01*
X244924051Y-93125500D01*
X244996759Y-93125500D01*
X245003234Y-93125712D01*
X245238199Y-93141112D01*
X245251027Y-93142801D01*
X245478797Y-93188107D01*
X245491297Y-93191456D01*
X245711201Y-93266104D01*
X245723164Y-93271060D01*
X245931426Y-93373763D01*
X245942642Y-93380238D01*
X246135729Y-93509255D01*
X246146002Y-93517138D01*
X246320593Y-93670249D01*
X246329750Y-93679406D01*
X246482861Y-93853997D01*
X246490744Y-93864270D01*
X246619761Y-94057357D01*
X246626236Y-94068573D01*
X246728939Y-94276835D01*
X246733895Y-94288798D01*
X246808541Y-94508697D01*
X246811893Y-94521206D01*
X246857197Y-94748967D01*
X246858887Y-94761806D01*
X246874075Y-94993525D01*
X246874075Y-95006475D01*
X246858887Y-95238193D01*
X246857197Y-95251032D01*
X246811893Y-95478793D01*
X246808541Y-95491302D01*
X246733895Y-95711201D01*
X246728939Y-95723164D01*
X246626236Y-95931426D01*
X246619761Y-95942642D01*
X246490744Y-96135729D01*
X246482861Y-96146002D01*
X246329750Y-96320593D01*
X246320593Y-96329750D01*
X246146002Y-96482861D01*
X246135729Y-96490744D01*
X245942642Y-96619761D01*
X245931426Y-96626236D01*
X245723164Y-96728939D01*
X245711201Y-96733895D01*
X245491302Y-96808541D01*
X245478793Y-96811893D01*
X245251032Y-96857197D01*
X245238193Y-96858887D01*
X245003234Y-96874288D01*
X244996759Y-96874500D01*
X54836195Y-96874500D01*
X54510392Y-96908744D01*
X54189953Y-96976855D01*
X54088531Y-97009809D01*
X53878384Y-97078090D01*
X53878377Y-97078092D01*
X53878377Y-97078093D01*
X53579110Y-97211335D01*
X53579108Y-97211336D01*
X53422961Y-97301487D01*
X53295395Y-97375138D01*
X53295391Y-97375141D01*
X53030357Y-97567698D01*
X52786916Y-97786894D01*
X52786894Y-97786916D01*
X52567698Y-98030357D01*
X52396419Y-98266104D01*
X52375138Y-98295395D01*
X52328234Y-98376635D01*
X52211336Y-98579108D01*
X52211335Y-98579110D01*
X52088948Y-98853997D01*
X52078090Y-98878384D01*
X52019938Y-99057357D01*
X51976855Y-99189953D01*
X51908744Y-99510392D01*
X51883669Y-99748967D01*
X51874500Y-99836199D01*
X51874500Y-99924051D01*
X51874500Y-100000000D01*
X51874500Y-100163801D01*
X51908744Y-100489607D01*
X51976856Y-100810049D01*
X52078090Y-101121616D01*
X52117808Y-101210825D01*
X52211335Y-101420889D01*
X52211336Y-101420891D01*
X52211338Y-101420894D01*
X52375138Y-101704605D01*
X52486922Y-101858463D01*
X52567698Y-101969642D01*
X52785320Y-102211335D01*
X52786905Y-102213095D01*
X52786915Y-102213104D01*
X52786916Y-102213105D01*
X53030357Y-102432301D01*
X53030360Y-102432303D01*
X53295395Y-102624862D01*
X53579106Y-102788662D01*
X53878384Y-102921910D01*
X54189951Y-103023144D01*
X54510393Y-103091256D01*
X54836199Y-103125500D01*
X54938394Y-103125500D01*
X244924051Y-103125500D01*
X244996759Y-103125500D01*
X245003234Y-103125712D01*
X245238199Y-103141112D01*
X245251027Y-103142801D01*
X245478797Y-103188107D01*
X245491297Y-103191456D01*
X245711201Y-103266104D01*
X245723164Y-103271060D01*
X245931426Y-103373763D01*
X245942642Y-103380238D01*
X246135729Y-103509255D01*
X246146002Y-103517138D01*
X246320593Y-103670249D01*
X246329750Y-103679406D01*
X246482861Y-103853997D01*
X246490744Y-103864270D01*
X246619761Y-104057357D01*
X246626236Y-104068573D01*
X246728939Y-104276835D01*
X246733895Y-104288798D01*
X246808541Y-104508697D01*
X246811893Y-104521206D01*
X246857197Y-104748967D01*
X246858887Y-104761806D01*
X246874075Y-104993525D01*
X246874075Y-105006475D01*
X246858887Y-105238193D01*
X246857197Y-105251032D01*
X246811893Y-105478793D01*
X246808541Y-105491302D01*
X246733895Y-105711201D01*
X246728939Y-105723164D01*
X246626236Y-105931426D01*
X246619761Y-105942642D01*
X246490744Y-106135729D01*
X246482861Y-106146002D01*
X246329750Y-106320593D01*
X246320593Y-106329750D01*
X246146002Y-106482861D01*
X246135729Y-106490744D01*
X245942642Y-106619761D01*
X245931426Y-106626236D01*
X245723164Y-106728939D01*
X245711201Y-106733895D01*
X245491302Y-106808541D01*
X245478793Y-106811893D01*
X245251032Y-106857197D01*
X245238193Y-106858887D01*
X245003234Y-106874288D01*
X244996759Y-106874500D01*
X54836195Y-106874500D01*
X54510392Y-106908744D01*
X54189953Y-106976855D01*
X54088531Y-107009809D01*
X53878384Y-107078090D01*
X53878377Y-107078092D01*
X53878377Y-107078093D01*
X53579110Y-107211335D01*
X53579108Y-107211336D01*
X53422961Y-107301487D01*
X53295395Y-107375138D01*
X53295391Y-107375141D01*
X53030357Y-107567698D01*
X52786916Y-107786894D01*
X52786894Y-107786916D01*
X52567698Y-108030357D01*
X52396419Y-108266104D01*
X52375138Y-108295395D01*
X52328234Y-108376635D01*
X52211336Y-108579108D01*
X52211335Y-108579110D01*
X52088948Y-108853997D01*
X52078090Y-108878384D01*
X52019938Y-109057357D01*
X51976855Y-109189953D01*
X51908744Y-109510392D01*
X51883669Y-109748967D01*
X51874500Y-109836199D01*
X51874500Y-109924051D01*
X51874500Y-110000000D01*
X51874500Y-110163801D01*
X51908744Y-110489607D01*
X51976856Y-110810049D01*
X52078090Y-111121616D01*
X52117808Y-111210825D01*
X52211335Y-111420889D01*
X52211336Y-111420891D01*
X52211338Y-111420894D01*
X52375138Y-111704605D01*
X52486922Y-111858463D01*
X52567698Y-111969642D01*
X52785320Y-112211335D01*
X52786905Y-112213095D01*
X52786915Y-112213104D01*
X52786916Y-112213105D01*
X53030357Y-112432301D01*
X53030360Y-112432303D01*
X53295395Y-112624862D01*
X53579106Y-112788662D01*
X53878384Y-112921910D01*
X54189951Y-113023144D01*
X54510393Y-113091256D01*
X54836199Y-113125500D01*
X54938394Y-113125500D01*
X244924051Y-113125500D01*
X244996759Y-113125500D01*
X245003234Y-113125712D01*
X245238199Y-113141112D01*
X245251027Y-113142801D01*
X245478797Y-113188107D01*
X245491297Y-113191456D01*
X245711201Y-113266104D01*
X245723164Y-113271060D01*
X245931426Y-113373763D01*
X245942642Y-113380238D01*
X246135729Y-113509255D01*
X246146002Y-113517138D01*
X246320593Y-113670249D01*
X246329750Y-113679406D01*
X246482861Y-113853997D01*
X246490744Y-113864270D01*
X246619761Y-114057357D01*
X246626236Y-114068573D01*
X246728939Y-114276835D01*
X246733895Y-114288798D01*
X246808541Y-114508697D01*
X246811893Y-114521206D01*
X246857197Y-114748967D01*
X246858887Y-114761806D01*
X246874075Y-114993525D01*
X246874075Y-115006475D01*
X246858887Y-115238193D01*
X246857197Y-115251032D01*
X246811893Y-115478793D01*
X246808541Y-115491302D01*
X246733895Y-115711201D01*
X246728939Y-115723164D01*
X246626236Y-115931426D01*
X246619761Y-115942642D01*
X246490744Y-116135729D01*
X246482861Y-116146002D01*
X246329750Y-116320593D01*
X246320593Y-116329750D01*
X246146002Y-116482861D01*
X246135729Y-116490744D01*
X245942642Y-116619761D01*
X245931426Y-116626236D01*
X245723164Y-116728939D01*
X245711201Y-116733895D01*
X245491302Y-116808541D01*
X245478793Y-116811893D01*
X245251032Y-116857197D01*
X245238193Y-116858887D01*
X245003234Y-116874288D01*
X244996759Y-116874500D01*
X54836195Y-116874500D01*
X54510392Y-116908744D01*
X54189953Y-116976855D01*
X54088531Y-117009809D01*
X53878384Y-117078090D01*
X53878377Y-117078092D01*
X53878377Y-117078093D01*
X53579110Y-117211335D01*
X53579108Y-117211336D01*
X53422961Y-117301487D01*
X53295395Y-117375138D01*
X53295391Y-117375141D01*
X53030357Y-117567698D01*
X52786916Y-117786894D01*
X52786894Y-117786916D01*
X52567698Y-118030357D01*
X52396419Y-118266104D01*
X52375138Y-118295395D01*
X52328234Y-118376635D01*
X52211336Y-118579108D01*
X52211335Y-118579110D01*
X52088948Y-118853997D01*
X52078090Y-118878384D01*
X52019938Y-119057357D01*
X51976855Y-119189953D01*
X51908744Y-119510392D01*
X51883669Y-119748967D01*
X51874500Y-119836199D01*
X51874500Y-119924051D01*
X51874500Y-120000000D01*
X51874500Y-120163801D01*
X51908744Y-120489607D01*
X51976856Y-120810049D01*
X52078090Y-121121616D01*
X52117808Y-121210825D01*
X52211335Y-121420889D01*
X52211336Y-121420891D01*
X52211338Y-121420894D01*
X52375138Y-121704605D01*
X52486922Y-121858463D01*
X52567698Y-121969642D01*
X52785320Y-122211335D01*
X52786905Y-122213095D01*
X52786915Y-122213104D01*
X52786916Y-122213105D01*
X53030357Y-122432301D01*
X53030360Y-122432303D01*
X53295395Y-122624862D01*
X53579106Y-122788662D01*
X53878384Y-122921910D01*
X54189951Y-123023144D01*
X54510393Y-123091256D01*
X54836199Y-123125500D01*
X54938394Y-123125500D01*
X229924051Y-123125500D01*
X229996759Y-123125500D01*
X230003234Y-123125712D01*
X230238199Y-123141112D01*
X230251027Y-123142801D01*
X230478797Y-123188107D01*
X230491297Y-123191456D01*
X230711201Y-123266104D01*
X230723164Y-123271060D01*
X230931426Y-123373763D01*
X230942642Y-123380238D01*
X231135729Y-123509255D01*
X231146002Y-123517138D01*
X231320593Y-123670249D01*
X231329750Y-123679406D01*
X231482861Y-123853997D01*
X231490744Y-123864270D01*
X231619761Y-124057357D01*
X231626236Y-124068573D01*
X231728939Y-124276835D01*
X231733895Y-124288798D01*
X231808541Y-124508697D01*
X231811893Y-124521206D01*
X231857197Y-124748967D01*
X231858887Y-124761806D01*
X231874075Y-124993525D01*
X231874075Y-125006475D01*
X231858887Y-125238193D01*
X231857197Y-125251032D01*
X231811893Y-125478793D01*
X231808541Y-125491302D01*
X231733895Y-125711201D01*
X231728939Y-125723164D01*
X231626236Y-125931426D01*
X231619761Y-125942642D01*
X231490744Y-126135729D01*
X231482861Y-126146002D01*
X231329750Y-126320593D01*
X231320593Y-126329750D01*
X231146002Y-126482861D01*
X231135729Y-126490744D01*
X230942642Y-126619761D01*
X230931426Y-126626236D01*
X230723164Y-126728939D01*
X230711201Y-126733895D01*
X230491302Y-126808541D01*
X230478793Y-126811893D01*
X230251032Y-126857197D01*
X230238193Y-126858887D01*
X230003234Y-126874288D01*
X229996759Y-126874500D01*
X54836195Y-126874500D01*
X54510392Y-126908744D01*
X54189953Y-126976855D01*
X54088531Y-127009809D01*
X53878384Y-127078090D01*
X53878377Y-127078092D01*
X53878377Y-127078093D01*
X53579110Y-127211335D01*
X53579108Y-127211336D01*
X53422961Y-127301487D01*
X53295395Y-127375138D01*
X53295391Y-127375141D01*
X53030357Y-127567698D01*
X52786916Y-127786894D01*
X52786894Y-127786916D01*
X52567698Y-128030357D01*
X52396419Y-128266104D01*
X52375138Y-128295395D01*
X52328234Y-128376635D01*
X52211336Y-128579108D01*
X52211335Y-128579110D01*
X52088948Y-128853997D01*
X52078090Y-128878384D01*
X52038737Y-128999500D01*
X51976855Y-129189953D01*
X51908744Y-129510392D01*
X51874500Y-129836195D01*
X51874500Y-130163804D01*
X51908744Y-130489607D01*
X51976855Y-130810046D01*
X51979230Y-130817357D01*
X52078090Y-131121616D01*
X52117808Y-131210825D01*
X52211335Y-131420889D01*
X52211336Y-131420891D01*
X52211338Y-131420894D01*
X52375138Y-131704605D01*
X52486922Y-131858463D01*
X52567698Y-131969642D01*
X52785320Y-132211335D01*
X52786905Y-132213095D01*
X52786915Y-132213104D01*
X52786916Y-132213105D01*
X53030357Y-132432301D01*
X53030360Y-132432303D01*
X53295395Y-132624862D01*
X53579106Y-132788662D01*
X53878384Y-132921910D01*
X54189951Y-133023144D01*
X54510393Y-133091256D01*
X54836199Y-133125500D01*
X54938394Y-133125500D01*
X229924051Y-133125500D01*
X229996759Y-133125500D01*
X230003234Y-133125712D01*
X230238199Y-133141112D01*
X230251027Y-133142801D01*
X230478797Y-133188107D01*
X230491297Y-133191456D01*
X230711201Y-133266104D01*
X230723164Y-133271060D01*
X230931426Y-133373763D01*
X230942642Y-133380238D01*
X231135729Y-133509255D01*
X231146002Y-133517138D01*
X231320593Y-133670249D01*
X231329750Y-133679406D01*
X231482861Y-133853997D01*
X231490744Y-133864270D01*
X231619761Y-134057357D01*
X231626236Y-134068573D01*
X231728939Y-134276835D01*
X231733895Y-134288798D01*
X231808541Y-134508697D01*
X231811893Y-134521206D01*
X231857197Y-134748967D01*
X231858887Y-134761806D01*
X231874075Y-134993525D01*
X231874075Y-135006475D01*
X231858887Y-135238193D01*
X231857197Y-135251032D01*
X231811893Y-135478793D01*
X231808541Y-135491302D01*
X231733895Y-135711201D01*
X231728939Y-135723164D01*
X231626236Y-135931426D01*
X231619761Y-135942642D01*
X231490744Y-136135729D01*
X231482861Y-136146002D01*
X231329750Y-136320593D01*
X231320593Y-136329750D01*
X231146002Y-136482861D01*
X231135729Y-136490744D01*
X230942642Y-136619761D01*
X230931426Y-136626236D01*
X230723164Y-136728939D01*
X230711201Y-136733895D01*
X230491302Y-136808541D01*
X230478793Y-136811893D01*
X230251032Y-136857197D01*
X230238193Y-136858887D01*
X230003234Y-136874288D01*
X229996759Y-136874500D01*
X64836195Y-136874500D01*
X64510392Y-136908744D01*
X64189953Y-136976855D01*
X64088531Y-137009809D01*
X63878384Y-137078090D01*
X63878377Y-137078092D01*
X63878377Y-137078093D01*
X63579110Y-137211335D01*
X63579108Y-137211336D01*
X63422961Y-137301487D01*
X63295395Y-137375138D01*
X63295391Y-137375141D01*
X63030357Y-137567698D01*
X62786916Y-137786894D01*
X62786894Y-137786916D01*
X62567698Y-138030357D01*
X62396419Y-138266104D01*
X62375138Y-138295395D01*
X62328234Y-138376635D01*
X62211336Y-138579108D01*
X62211335Y-138579110D01*
X62088948Y-138853997D01*
X62078090Y-138878384D01*
X62019938Y-139057357D01*
X61976855Y-139189953D01*
X61908744Y-139510392D01*
X61883669Y-139748967D01*
X61874500Y-139836199D01*
X61874500Y-139924051D01*
X61874500Y-140000000D01*
X61874500Y-140163801D01*
X61908744Y-140489607D01*
X61976856Y-140810049D01*
X62078090Y-141121616D01*
X62106771Y-141186034D01*
X62211335Y-141420889D01*
X62211336Y-141420891D01*
X62211338Y-141420894D01*
X62375138Y-141704605D01*
X62486922Y-141858463D01*
X62567698Y-141969642D01*
X62780120Y-142205560D01*
X62786905Y-142213095D01*
X62786915Y-142213104D01*
X62786916Y-142213105D01*
X63030357Y-142432301D01*
X63030360Y-142432303D01*
X63295395Y-142624862D01*
X63579106Y-142788662D01*
X63878384Y-142921910D01*
X64189951Y-143023144D01*
X64510393Y-143091256D01*
X64836199Y-143125500D01*
X64836202Y-143125500D01*
X235136034Y-143125500D01*
X235136035Y-143125500D01*
X235405779Y-143089987D01*
X235668579Y-143019570D01*
X235919940Y-142915453D01*
X236155560Y-142779418D01*
X236371408Y-142613791D01*
X236563791Y-142421408D01*
X236729418Y-142205560D01*
X236865453Y-141969940D01*
X236969570Y-141718579D01*
X237039987Y-141455779D01*
X237075500Y-141186035D01*
X237075500Y-141050000D01*
X237075500Y-140974051D01*
X237075500Y-134951579D01*
X240249500Y-134951579D01*
X240249500Y-135148420D01*
X240280289Y-135342821D01*
X240280291Y-135342826D01*
X240341116Y-135530025D01*
X240430476Y-135705405D01*
X240546172Y-135864646D01*
X240685354Y-136003828D01*
X240844595Y-136119524D01*
X241019975Y-136208884D01*
X241207174Y-136269709D01*
X241207175Y-136269709D01*
X241207178Y-136269710D01*
X241401580Y-136300500D01*
X241401583Y-136300500D01*
X241598420Y-136300500D01*
X241792821Y-136269710D01*
X241792822Y-136269709D01*
X241792826Y-136269709D01*
X241980025Y-136208884D01*
X242155405Y-136119524D01*
X242314646Y-136003828D01*
X242453828Y-135864646D01*
X242569524Y-135705405D01*
X242658884Y-135530025D01*
X242719709Y-135342826D01*
X242748063Y-135163804D01*
X242750500Y-135148420D01*
X242750500Y-134951579D01*
X242719710Y-134757178D01*
X242719709Y-134757174D01*
X242658884Y-134569975D01*
X242569524Y-134394595D01*
X242453828Y-134235354D01*
X242314646Y-134096172D01*
X242155405Y-133980476D01*
X242155404Y-133980475D01*
X242155402Y-133980474D01*
X241980025Y-133891116D01*
X241792821Y-133830289D01*
X241598420Y-133799500D01*
X241598417Y-133799500D01*
X241401583Y-133799500D01*
X241401580Y-133799500D01*
X241207178Y-133830289D01*
X241019974Y-133891116D01*
X240844597Y-133980474D01*
X240685355Y-134096171D01*
X240546171Y-134235355D01*
X240430474Y-134394597D01*
X240341116Y-134569974D01*
X240280289Y-134757178D01*
X240249500Y-134951579D01*
X237075500Y-134951579D01*
X237075500Y-130830428D01*
X237094407Y-130772237D01*
X237104497Y-130760424D01*
X237227131Y-130637790D01*
X237227139Y-130637782D01*
X237336632Y-130473914D01*
X237412051Y-130291835D01*
X237450500Y-130098541D01*
X237450500Y-129901459D01*
X237412051Y-129708165D01*
X237336632Y-129526086D01*
X237227139Y-129362218D01*
X237087782Y-129222861D01*
X236923914Y-129113368D01*
X236923915Y-129113368D01*
X236923913Y-129113367D01*
X236741835Y-129037949D01*
X236548543Y-128999500D01*
X236548541Y-128999500D01*
X236351459Y-128999500D01*
X236351456Y-128999500D01*
X236158165Y-129037949D01*
X236158163Y-129037949D01*
X235976086Y-129113367D01*
X235812218Y-129222861D01*
X235812214Y-129222864D01*
X235672864Y-129362214D01*
X235672861Y-129362218D01*
X235563367Y-129526086D01*
X235487949Y-129708163D01*
X235487949Y-129708165D01*
X235449500Y-129901456D01*
X235449500Y-130098543D01*
X235487949Y-130291834D01*
X235487949Y-130291836D01*
X235563367Y-130473913D01*
X235574986Y-130491302D01*
X235672861Y-130637782D01*
X235672864Y-130637785D01*
X235672868Y-130637790D01*
X235795503Y-130760424D01*
X235823281Y-130814941D01*
X235824500Y-130830428D01*
X235824500Y-141045138D01*
X235824023Y-141054842D01*
X235809612Y-141201148D01*
X235805826Y-141220181D01*
X235764569Y-141356191D01*
X235757142Y-141374122D01*
X235690144Y-141499467D01*
X235679362Y-141515604D01*
X235589195Y-141625472D01*
X235575472Y-141639195D01*
X235465604Y-141729362D01*
X235449467Y-141740144D01*
X235324122Y-141807142D01*
X235306191Y-141814569D01*
X235170181Y-141855826D01*
X235151149Y-141859612D01*
X235024367Y-141872099D01*
X235004841Y-141874023D01*
X234995139Y-141874500D01*
X65003241Y-141874500D01*
X64996766Y-141874288D01*
X64761806Y-141858887D01*
X64748967Y-141857197D01*
X64521206Y-141811893D01*
X64508697Y-141808541D01*
X64288798Y-141733895D01*
X64276835Y-141728939D01*
X64068573Y-141626236D01*
X64057357Y-141619761D01*
X63864270Y-141490744D01*
X63853997Y-141482861D01*
X63679406Y-141329750D01*
X63670249Y-141320593D01*
X63517138Y-141146002D01*
X63509255Y-141135729D01*
X63380238Y-140942642D01*
X63373763Y-140931426D01*
X63271060Y-140723164D01*
X63266104Y-140711201D01*
X63191458Y-140491302D01*
X63188106Y-140478793D01*
X63142802Y-140251032D01*
X63141112Y-140238193D01*
X63125924Y-140006468D01*
X63125924Y-139993525D01*
X63136236Y-139836199D01*
X63141112Y-139761798D01*
X63142802Y-139748967D01*
X63188108Y-139521198D01*
X63191455Y-139508705D01*
X63266106Y-139288792D01*
X63271057Y-139276842D01*
X63373765Y-139068567D01*
X63380238Y-139057357D01*
X63509258Y-138864264D01*
X63517133Y-138854002D01*
X63670258Y-138679396D01*
X63679396Y-138670258D01*
X63854002Y-138517133D01*
X63864264Y-138509258D01*
X64057362Y-138380234D01*
X64068567Y-138373765D01*
X64276842Y-138271057D01*
X64288792Y-138266106D01*
X64508705Y-138191455D01*
X64521198Y-138188108D01*
X64748973Y-138142801D01*
X64761798Y-138141112D01*
X64996766Y-138125712D01*
X65003241Y-138125500D01*
X230163798Y-138125500D01*
X230163801Y-138125500D01*
X230489607Y-138091256D01*
X230810049Y-138023144D01*
X231121616Y-137921910D01*
X231420894Y-137788662D01*
X231704605Y-137624862D01*
X231969640Y-137432303D01*
X232213095Y-137213095D01*
X232432303Y-136969640D01*
X232624862Y-136704605D01*
X232788662Y-136420894D01*
X232921910Y-136121616D01*
X233023144Y-135810049D01*
X233091256Y-135489607D01*
X233125500Y-135163801D01*
X233125500Y-135000000D01*
X233125500Y-134924051D01*
X233125500Y-134836199D01*
X233091256Y-134510393D01*
X233023144Y-134189951D01*
X232921910Y-133878384D01*
X232788662Y-133579106D01*
X232624862Y-133295395D01*
X232432303Y-133030360D01*
X232432301Y-133030357D01*
X232213105Y-132786916D01*
X232213104Y-132786915D01*
X232213095Y-132786905D01*
X232213083Y-132786894D01*
X231969642Y-132567698D01*
X231875345Y-132499188D01*
X231704605Y-132375138D01*
X231423955Y-132213105D01*
X231420891Y-132211336D01*
X231420889Y-132211335D01*
X231210825Y-132117808D01*
X231121616Y-132078090D01*
X230810049Y-131976856D01*
X230810046Y-131976855D01*
X230489607Y-131908744D01*
X230163804Y-131874500D01*
X230163801Y-131874500D01*
X230061606Y-131874500D01*
X55003241Y-131874500D01*
X54996766Y-131874288D01*
X54761806Y-131858887D01*
X54748967Y-131857197D01*
X54521206Y-131811893D01*
X54508697Y-131808541D01*
X54288798Y-131733895D01*
X54276835Y-131728939D01*
X54068573Y-131626236D01*
X54057357Y-131619761D01*
X53864270Y-131490744D01*
X53853997Y-131482861D01*
X53679406Y-131329750D01*
X53670249Y-131320593D01*
X53517138Y-131146002D01*
X53509255Y-131135729D01*
X53380238Y-130942642D01*
X53373763Y-130931426D01*
X53271060Y-130723164D01*
X53266104Y-130711201D01*
X53241184Y-130637790D01*
X53191456Y-130491297D01*
X53188106Y-130478793D01*
X53187135Y-130473913D01*
X53142801Y-130251027D01*
X53141112Y-130238193D01*
X53125924Y-130006468D01*
X53125924Y-129993525D01*
X53130478Y-129924051D01*
X53141112Y-129761798D01*
X53142802Y-129748967D01*
X53150918Y-129708165D01*
X53188108Y-129521198D01*
X53191455Y-129508705D01*
X53266106Y-129288792D01*
X53271057Y-129276842D01*
X53373765Y-129068567D01*
X53380238Y-129057357D01*
X53509258Y-128864264D01*
X53517133Y-128854002D01*
X53670258Y-128679396D01*
X53679396Y-128670258D01*
X53854002Y-128517133D01*
X53864264Y-128509258D01*
X54057362Y-128380234D01*
X54068561Y-128373769D01*
X54276842Y-128271057D01*
X54288792Y-128266106D01*
X54508705Y-128191455D01*
X54521198Y-128188108D01*
X54748973Y-128142801D01*
X54761798Y-128141112D01*
X54996766Y-128125712D01*
X55003241Y-128125500D01*
X230163798Y-128125500D01*
X230163801Y-128125500D01*
X230489607Y-128091256D01*
X230810049Y-128023144D01*
X231121616Y-127921910D01*
X231420894Y-127788662D01*
X231704605Y-127624862D01*
X231969640Y-127432303D01*
X231999348Y-127405554D01*
X235250000Y-127405554D01*
X235250000Y-127594445D01*
X235279546Y-127780996D01*
X235337914Y-127960635D01*
X235423667Y-128128936D01*
X235423671Y-128128942D01*
X235471871Y-128195283D01*
X236022804Y-127644349D01*
X236030667Y-127673694D01*
X236089910Y-127776306D01*
X236173694Y-127860090D01*
X236276306Y-127919333D01*
X236305646Y-127927194D01*
X235754715Y-128478126D01*
X235754715Y-128478127D01*
X235821057Y-128526328D01*
X235821063Y-128526332D01*
X235989364Y-128612085D01*
X236169003Y-128670453D01*
X236355555Y-128700000D01*
X236544445Y-128700000D01*
X236730996Y-128670453D01*
X236910635Y-128612085D01*
X237078939Y-128526330D01*
X237145283Y-128478127D01*
X236594351Y-127927195D01*
X236623694Y-127919333D01*
X236726306Y-127860090D01*
X236810090Y-127776306D01*
X236869333Y-127673694D01*
X236877195Y-127644351D01*
X237428127Y-128195283D01*
X237476330Y-128128939D01*
X237562085Y-127960635D01*
X237620453Y-127780996D01*
X237650000Y-127594445D01*
X237650000Y-127405554D01*
X237620453Y-127219003D01*
X237562085Y-127039364D01*
X237476332Y-126871063D01*
X237476328Y-126871057D01*
X237428127Y-126804715D01*
X237428126Y-126804715D01*
X236877194Y-127355646D01*
X236869333Y-127326306D01*
X236810090Y-127223694D01*
X236726306Y-127139910D01*
X236623694Y-127080667D01*
X236594349Y-127072804D01*
X237145283Y-126521871D01*
X237078942Y-126473671D01*
X237078936Y-126473667D01*
X236910635Y-126387914D01*
X236730996Y-126329546D01*
X236544445Y-126300000D01*
X236355555Y-126300000D01*
X236169003Y-126329546D01*
X235989364Y-126387914D01*
X235821063Y-126473667D01*
X235821059Y-126473669D01*
X235754715Y-126521871D01*
X236305648Y-127072804D01*
X236276306Y-127080667D01*
X236173694Y-127139910D01*
X236089910Y-127223694D01*
X236030667Y-127326306D01*
X236022804Y-127355648D01*
X235471871Y-126804715D01*
X235423669Y-126871059D01*
X235423667Y-126871063D01*
X235337914Y-127039364D01*
X235279546Y-127219003D01*
X235250000Y-127405554D01*
X231999348Y-127405554D01*
X232213095Y-127213095D01*
X232432303Y-126969640D01*
X232624862Y-126704605D01*
X232788662Y-126420894D01*
X232921910Y-126121616D01*
X233023144Y-125810049D01*
X233091256Y-125489607D01*
X233125500Y-125163801D01*
X233125500Y-125000000D01*
X233125500Y-124924051D01*
X233125500Y-124851579D01*
X240249500Y-124851579D01*
X240249500Y-125048420D01*
X240280289Y-125242821D01*
X240280291Y-125242826D01*
X240341116Y-125430025D01*
X240430476Y-125605405D01*
X240546172Y-125764646D01*
X240685354Y-125903828D01*
X240844595Y-126019524D01*
X241019975Y-126108884D01*
X241207174Y-126169709D01*
X241207175Y-126169709D01*
X241207178Y-126169710D01*
X241401580Y-126200500D01*
X241401583Y-126200500D01*
X241598420Y-126200500D01*
X241792821Y-126169710D01*
X241792822Y-126169709D01*
X241792826Y-126169709D01*
X241980025Y-126108884D01*
X242155405Y-126019524D01*
X242314646Y-125903828D01*
X242453828Y-125764646D01*
X242569524Y-125605405D01*
X242658884Y-125430025D01*
X242719709Y-125242826D01*
X242732225Y-125163804D01*
X242750500Y-125048420D01*
X242750500Y-124851579D01*
X242719710Y-124657178D01*
X242719709Y-124657174D01*
X242658884Y-124469975D01*
X242569524Y-124294595D01*
X242453828Y-124135354D01*
X242314646Y-123996172D01*
X242155405Y-123880476D01*
X242155404Y-123880475D01*
X242155402Y-123880474D01*
X241980025Y-123791116D01*
X241792821Y-123730289D01*
X241598420Y-123699500D01*
X241598417Y-123699500D01*
X241401583Y-123699500D01*
X241401580Y-123699500D01*
X241207178Y-123730289D01*
X241019974Y-123791116D01*
X240844597Y-123880474D01*
X240685355Y-123996171D01*
X240546171Y-124135355D01*
X240430474Y-124294597D01*
X240341116Y-124469974D01*
X240280289Y-124657178D01*
X240249500Y-124851579D01*
X233125500Y-124851579D01*
X233125500Y-124836199D01*
X233091256Y-124510393D01*
X233023144Y-124189951D01*
X232921910Y-123878384D01*
X232788662Y-123579106D01*
X232624862Y-123295395D01*
X232432303Y-123030360D01*
X232432301Y-123030357D01*
X232213105Y-122786916D01*
X232213104Y-122786915D01*
X232213095Y-122786905D01*
X232213083Y-122786894D01*
X231969642Y-122567698D01*
X231875345Y-122499188D01*
X231704605Y-122375138D01*
X231423955Y-122213105D01*
X231420891Y-122211336D01*
X231420889Y-122211335D01*
X231210825Y-122117808D01*
X231121616Y-122078090D01*
X230810049Y-121976856D01*
X230810046Y-121976855D01*
X230489607Y-121908744D01*
X230163804Y-121874500D01*
X230163801Y-121874500D01*
X230061606Y-121874500D01*
X55003241Y-121874500D01*
X54996766Y-121874288D01*
X54761806Y-121858887D01*
X54748967Y-121857197D01*
X54521206Y-121811893D01*
X54508697Y-121808541D01*
X54288798Y-121733895D01*
X54276835Y-121728939D01*
X54068573Y-121626236D01*
X54057357Y-121619761D01*
X53864270Y-121490744D01*
X53853997Y-121482861D01*
X53679406Y-121329750D01*
X53670249Y-121320593D01*
X53517138Y-121146002D01*
X53509255Y-121135729D01*
X53380238Y-120942642D01*
X53373763Y-120931426D01*
X53271060Y-120723164D01*
X53266104Y-120711201D01*
X53191458Y-120491302D01*
X53188106Y-120478793D01*
X53142802Y-120251032D01*
X53141112Y-120238193D01*
X53125924Y-120006468D01*
X53125924Y-119993525D01*
X53136236Y-119836199D01*
X53141112Y-119761798D01*
X53142802Y-119748967D01*
X53188108Y-119521198D01*
X53191455Y-119508705D01*
X53266106Y-119288792D01*
X53271057Y-119276842D01*
X53373765Y-119068567D01*
X53380238Y-119057357D01*
X53509258Y-118864264D01*
X53517133Y-118854002D01*
X53670258Y-118679396D01*
X53679396Y-118670258D01*
X53854002Y-118517133D01*
X53864264Y-118509258D01*
X54057362Y-118380234D01*
X54068567Y-118373765D01*
X54276842Y-118271057D01*
X54288792Y-118266106D01*
X54508705Y-118191455D01*
X54521198Y-118188108D01*
X54748973Y-118142801D01*
X54761798Y-118141112D01*
X54996766Y-118125712D01*
X55003241Y-118125500D01*
X245163798Y-118125500D01*
X245163801Y-118125500D01*
X245489607Y-118091256D01*
X245810049Y-118023144D01*
X246121616Y-117921910D01*
X246420894Y-117788662D01*
X246704605Y-117624862D01*
X246969640Y-117432303D01*
X247213095Y-117213095D01*
X247432303Y-116969640D01*
X247624862Y-116704605D01*
X247788662Y-116420894D01*
X247921910Y-116121616D01*
X248023144Y-115810049D01*
X248091256Y-115489607D01*
X248125500Y-115163801D01*
X248125500Y-115000000D01*
X248125500Y-114924051D01*
X248125500Y-114836199D01*
X248091256Y-114510393D01*
X248023144Y-114189951D01*
X247921910Y-113878384D01*
X247788662Y-113579106D01*
X247624862Y-113295395D01*
X247432303Y-113030360D01*
X247432301Y-113030357D01*
X247213105Y-112786916D01*
X247213104Y-112786915D01*
X247213095Y-112786905D01*
X247213083Y-112786894D01*
X246969642Y-112567698D01*
X246875345Y-112499188D01*
X246704605Y-112375138D01*
X246423955Y-112213105D01*
X246420891Y-112211336D01*
X246420889Y-112211335D01*
X246210825Y-112117808D01*
X246121616Y-112078090D01*
X245810049Y-111976856D01*
X245810046Y-111976855D01*
X245489607Y-111908744D01*
X245163804Y-111874500D01*
X245163801Y-111874500D01*
X245061606Y-111874500D01*
X55003241Y-111874500D01*
X54996766Y-111874288D01*
X54761806Y-111858887D01*
X54748967Y-111857197D01*
X54521206Y-111811893D01*
X54508697Y-111808541D01*
X54288798Y-111733895D01*
X54276835Y-111728939D01*
X54068573Y-111626236D01*
X54057357Y-111619761D01*
X53864270Y-111490744D01*
X53853997Y-111482861D01*
X53679406Y-111329750D01*
X53670249Y-111320593D01*
X53517138Y-111146002D01*
X53509255Y-111135729D01*
X53380238Y-110942642D01*
X53373763Y-110931426D01*
X53271060Y-110723164D01*
X53266104Y-110711201D01*
X53191458Y-110491302D01*
X53188106Y-110478793D01*
X53142802Y-110251032D01*
X53141112Y-110238193D01*
X53125924Y-110006468D01*
X53125924Y-109993525D01*
X53136236Y-109836199D01*
X53141112Y-109761798D01*
X53142802Y-109748967D01*
X53188108Y-109521198D01*
X53191455Y-109508705D01*
X53266106Y-109288792D01*
X53271057Y-109276842D01*
X53373765Y-109068567D01*
X53380238Y-109057357D01*
X53509258Y-108864264D01*
X53517133Y-108854002D01*
X53670258Y-108679396D01*
X53679396Y-108670258D01*
X53854002Y-108517133D01*
X53864264Y-108509258D01*
X54057362Y-108380234D01*
X54068567Y-108373765D01*
X54276842Y-108271057D01*
X54288792Y-108266106D01*
X54508705Y-108191455D01*
X54521198Y-108188108D01*
X54748973Y-108142801D01*
X54761798Y-108141112D01*
X54996766Y-108125712D01*
X55003241Y-108125500D01*
X245163798Y-108125500D01*
X245163801Y-108125500D01*
X245489607Y-108091256D01*
X245810049Y-108023144D01*
X246121616Y-107921910D01*
X246420894Y-107788662D01*
X246704605Y-107624862D01*
X246969640Y-107432303D01*
X247213095Y-107213095D01*
X247432303Y-106969640D01*
X247624862Y-106704605D01*
X247788662Y-106420894D01*
X247921910Y-106121616D01*
X248023144Y-105810049D01*
X248091256Y-105489607D01*
X248125500Y-105163801D01*
X248125500Y-105000000D01*
X248125500Y-104924051D01*
X248125500Y-104836199D01*
X248091256Y-104510393D01*
X248023144Y-104189951D01*
X247921910Y-103878384D01*
X247788662Y-103579106D01*
X247624862Y-103295395D01*
X247432303Y-103030360D01*
X247432301Y-103030357D01*
X247213105Y-102786916D01*
X247213104Y-102786915D01*
X247213095Y-102786905D01*
X247213083Y-102786894D01*
X246969642Y-102567698D01*
X246875345Y-102499188D01*
X246704605Y-102375138D01*
X246423955Y-102213105D01*
X246420891Y-102211336D01*
X246420889Y-102211335D01*
X246210825Y-102117808D01*
X246121616Y-102078090D01*
X245810049Y-101976856D01*
X245810046Y-101976855D01*
X245489607Y-101908744D01*
X245163804Y-101874500D01*
X245163801Y-101874500D01*
X245061606Y-101874500D01*
X55003241Y-101874500D01*
X54996766Y-101874288D01*
X54761806Y-101858887D01*
X54748967Y-101857197D01*
X54521206Y-101811893D01*
X54508697Y-101808541D01*
X54288798Y-101733895D01*
X54276835Y-101728939D01*
X54068573Y-101626236D01*
X54057357Y-101619761D01*
X53864270Y-101490744D01*
X53853997Y-101482861D01*
X53679406Y-101329750D01*
X53670249Y-101320593D01*
X53517138Y-101146002D01*
X53509255Y-101135729D01*
X53380238Y-100942642D01*
X53373763Y-100931426D01*
X53271060Y-100723164D01*
X53266104Y-100711201D01*
X53191458Y-100491302D01*
X53188106Y-100478793D01*
X53142802Y-100251032D01*
X53141112Y-100238193D01*
X53125924Y-100006468D01*
X53125924Y-99993525D01*
X53136236Y-99836199D01*
X53141112Y-99761798D01*
X53142802Y-99748967D01*
X53188108Y-99521198D01*
X53191455Y-99508705D01*
X53266106Y-99288792D01*
X53271057Y-99276842D01*
X53373765Y-99068567D01*
X53380238Y-99057357D01*
X53509258Y-98864264D01*
X53517133Y-98854002D01*
X53670258Y-98679396D01*
X53679396Y-98670258D01*
X53854002Y-98517133D01*
X53864264Y-98509258D01*
X54057362Y-98380234D01*
X54068567Y-98373765D01*
X54276842Y-98271057D01*
X54288792Y-98266106D01*
X54508705Y-98191455D01*
X54521198Y-98188108D01*
X54748973Y-98142801D01*
X54761798Y-98141112D01*
X54996766Y-98125712D01*
X55003241Y-98125500D01*
X245163798Y-98125500D01*
X245163801Y-98125500D01*
X245489607Y-98091256D01*
X245810049Y-98023144D01*
X246121616Y-97921910D01*
X246420894Y-97788662D01*
X246704605Y-97624862D01*
X246969640Y-97432303D01*
X247213095Y-97213095D01*
X247432303Y-96969640D01*
X247624862Y-96704605D01*
X247788662Y-96420894D01*
X247921910Y-96121616D01*
X248023144Y-95810049D01*
X248091256Y-95489607D01*
X248125500Y-95163801D01*
X248125500Y-95000000D01*
X248125500Y-94924051D01*
X248125500Y-94836199D01*
X248091256Y-94510393D01*
X248023144Y-94189951D01*
X247921910Y-93878384D01*
X247788662Y-93579106D01*
X247624862Y-93295395D01*
X247432303Y-93030360D01*
X247432301Y-93030357D01*
X247213105Y-92786916D01*
X247213104Y-92786915D01*
X247213095Y-92786905D01*
X247213083Y-92786894D01*
X246969642Y-92567698D01*
X246875345Y-92499188D01*
X246704605Y-92375138D01*
X246423955Y-92213105D01*
X246420891Y-92211336D01*
X246420889Y-92211335D01*
X246210825Y-92117808D01*
X246121616Y-92078090D01*
X245810049Y-91976856D01*
X245810046Y-91976855D01*
X245489607Y-91908744D01*
X245163804Y-91874500D01*
X245163801Y-91874500D01*
X245061606Y-91874500D01*
X55003241Y-91874500D01*
X54996766Y-91874288D01*
X54761806Y-91858887D01*
X54748967Y-91857197D01*
X54521206Y-91811893D01*
X54508697Y-91808541D01*
X54288798Y-91733895D01*
X54276835Y-91728939D01*
X54068573Y-91626236D01*
X54057357Y-91619761D01*
X53864270Y-91490744D01*
X53853997Y-91482861D01*
X53679406Y-91329750D01*
X53670249Y-91320593D01*
X53517138Y-91146002D01*
X53509255Y-91135729D01*
X53380238Y-90942642D01*
X53373763Y-90931426D01*
X53271060Y-90723164D01*
X53266104Y-90711201D01*
X53191458Y-90491302D01*
X53188106Y-90478793D01*
X53142802Y-90251032D01*
X53141112Y-90238193D01*
X53125924Y-90006468D01*
X53125924Y-89993525D01*
X53136236Y-89836199D01*
X53141112Y-89761798D01*
X53142802Y-89748967D01*
X53188108Y-89521198D01*
X53191455Y-89508705D01*
X53266106Y-89288792D01*
X53271057Y-89276842D01*
X53373765Y-89068567D01*
X53380238Y-89057357D01*
X53509258Y-88864264D01*
X53517133Y-88854002D01*
X53670258Y-88679396D01*
X53679396Y-88670258D01*
X53854002Y-88517133D01*
X53864264Y-88509258D01*
X54057362Y-88380234D01*
X54068567Y-88373765D01*
X54276842Y-88271057D01*
X54288792Y-88266106D01*
X54508705Y-88191455D01*
X54521198Y-88188108D01*
X54748973Y-88142801D01*
X54761798Y-88141112D01*
X54996766Y-88125712D01*
X55003241Y-88125500D01*
X245163798Y-88125500D01*
X245163801Y-88125500D01*
X245489607Y-88091256D01*
X245810049Y-88023144D01*
X246121616Y-87921910D01*
X246420894Y-87788662D01*
X246704605Y-87624862D01*
X246969640Y-87432303D01*
X247213095Y-87213095D01*
X247432303Y-86969640D01*
X247624862Y-86704605D01*
X247788662Y-86420894D01*
X247921910Y-86121616D01*
X248023144Y-85810049D01*
X248091256Y-85489607D01*
X248125500Y-85163801D01*
X248125500Y-85000000D01*
X248125500Y-84924051D01*
X248125500Y-84836199D01*
X248091256Y-84510393D01*
X248023144Y-84189951D01*
X247921910Y-83878384D01*
X247788662Y-83579106D01*
X247624862Y-83295395D01*
X247432303Y-83030360D01*
X247432301Y-83030357D01*
X247213105Y-82786916D01*
X247213104Y-82786915D01*
X247213095Y-82786905D01*
X247213083Y-82786894D01*
X246969642Y-82567698D01*
X246875345Y-82499188D01*
X246704605Y-82375138D01*
X246423955Y-82213105D01*
X246420891Y-82211336D01*
X246420889Y-82211335D01*
X246210825Y-82117808D01*
X246121616Y-82078090D01*
X245810049Y-81976856D01*
X245810046Y-81976855D01*
X245489607Y-81908744D01*
X245163804Y-81874500D01*
X245163801Y-81874500D01*
X245061606Y-81874500D01*
X70003241Y-81874500D01*
X69996766Y-81874288D01*
X69761806Y-81858887D01*
X69748967Y-81857197D01*
X69521206Y-81811893D01*
X69508697Y-81808541D01*
X69288798Y-81733895D01*
X69276835Y-81728939D01*
X69068573Y-81626236D01*
X69057357Y-81619761D01*
X68864270Y-81490744D01*
X68853997Y-81482861D01*
X68679406Y-81329750D01*
X68670249Y-81320593D01*
X68517138Y-81146002D01*
X68509255Y-81135729D01*
X68380238Y-80942642D01*
X68373763Y-80931426D01*
X68271060Y-80723164D01*
X68266104Y-80711201D01*
X68191458Y-80491302D01*
X68188106Y-80478793D01*
X68142802Y-80251032D01*
X68141112Y-80238193D01*
X68125924Y-80006468D01*
X68125924Y-79993525D01*
X68136236Y-79836199D01*
X68141112Y-79761798D01*
X68142802Y-79748967D01*
X68188108Y-79521198D01*
X68191455Y-79508705D01*
X68266106Y-79288792D01*
X68271057Y-79276842D01*
X68373765Y-79068567D01*
X68380238Y-79057357D01*
X68509258Y-78864264D01*
X68517133Y-78854002D01*
X68670258Y-78679396D01*
X68679396Y-78670258D01*
X68854002Y-78517133D01*
X68864264Y-78509258D01*
X69057362Y-78380234D01*
X69068567Y-78373765D01*
X69276842Y-78271057D01*
X69288792Y-78266106D01*
X69508705Y-78191455D01*
X69521198Y-78188108D01*
X69748973Y-78142801D01*
X69761798Y-78141112D01*
X69996766Y-78125712D01*
X70003241Y-78125500D01*
X245163798Y-78125500D01*
X245163801Y-78125500D01*
X245489607Y-78091256D01*
X245810049Y-78023144D01*
X246121616Y-77921910D01*
X246420894Y-77788662D01*
X246704605Y-77624862D01*
X246969640Y-77432303D01*
X247213095Y-77213095D01*
X247432303Y-76969640D01*
X247624862Y-76704605D01*
X247788662Y-76420894D01*
X247921910Y-76121616D01*
X248023144Y-75810049D01*
X248091256Y-75489607D01*
X248125500Y-75163801D01*
X248125500Y-75000000D01*
X248125500Y-74924051D01*
X248125500Y-74836199D01*
X248091256Y-74510393D01*
X248023144Y-74189951D01*
X247921910Y-73878384D01*
X247788662Y-73579106D01*
X247624862Y-73295395D01*
X247432303Y-73030360D01*
X247432301Y-73030357D01*
X247213105Y-72786916D01*
X247213104Y-72786915D01*
X247213095Y-72786905D01*
X247165502Y-72744052D01*
X246969642Y-72567698D01*
X246875345Y-72499188D01*
X246704605Y-72375138D01*
X246423955Y-72213105D01*
X246420891Y-72211336D01*
X246420889Y-72211335D01*
X246210825Y-72117808D01*
X246121616Y-72078090D01*
X245810049Y-71976856D01*
X245810046Y-71976855D01*
X245489607Y-71908744D01*
X245163804Y-71874500D01*
X245163801Y-71874500D01*
X245061606Y-71874500D01*
X97503241Y-71874500D01*
X97496766Y-71874288D01*
X97261806Y-71858887D01*
X97248967Y-71857197D01*
X97021206Y-71811893D01*
X97008697Y-71808541D01*
X96788798Y-71733895D01*
X96776835Y-71728939D01*
X96568573Y-71626236D01*
X96557357Y-71619761D01*
X96364270Y-71490744D01*
X96353997Y-71482861D01*
X96179406Y-71329750D01*
X96170249Y-71320593D01*
X96017138Y-71146002D01*
X96009255Y-71135729D01*
X95880238Y-70942642D01*
X95873763Y-70931426D01*
X95771060Y-70723164D01*
X95766104Y-70711201D01*
X95691458Y-70491302D01*
X95688106Y-70478793D01*
X95642802Y-70251032D01*
X95641112Y-70238193D01*
X95641109Y-70238145D01*
X95625924Y-70006468D01*
X95625924Y-69993525D01*
X95636236Y-69836199D01*
X95641112Y-69761798D01*
X95642802Y-69748967D01*
X95688108Y-69521198D01*
X95691455Y-69508705D01*
X95766106Y-69288792D01*
X95771057Y-69276842D01*
X95873765Y-69068567D01*
X95880238Y-69057357D01*
X96009258Y-68864264D01*
X96017133Y-68854002D01*
X96170258Y-68679396D01*
X96179396Y-68670258D01*
X96354002Y-68517133D01*
X96364264Y-68509258D01*
X96557362Y-68380234D01*
X96568567Y-68373765D01*
X96776842Y-68271057D01*
X96788792Y-68266106D01*
X97008705Y-68191455D01*
X97021198Y-68188108D01*
X97248973Y-68142801D01*
X97261798Y-68141112D01*
X97496766Y-68125712D01*
X97503241Y-68125500D01*
X245163798Y-68125500D01*
X245163801Y-68125500D01*
X245489607Y-68091256D01*
X245810049Y-68023144D01*
X246121616Y-67921910D01*
X246420894Y-67788662D01*
X246704605Y-67624862D01*
X246969640Y-67432303D01*
X247213095Y-67213095D01*
X247432303Y-66969640D01*
X247624862Y-66704605D01*
X247788662Y-66420894D01*
X247921910Y-66121616D01*
X248023144Y-65810049D01*
X248091256Y-65489607D01*
X248125500Y-65163801D01*
X248125500Y-65000000D01*
X248125500Y-64924051D01*
X248125500Y-64836199D01*
X248091256Y-64510393D01*
X248023144Y-64189951D01*
X247921910Y-63878384D01*
X247794330Y-63591836D01*
X247788664Y-63579110D01*
X247788663Y-63579108D01*
X247787045Y-63576306D01*
X247624862Y-63295395D01*
X247432303Y-63030360D01*
X247432301Y-63030357D01*
X247213105Y-62786916D01*
X247213104Y-62786915D01*
X247213095Y-62786905D01*
X247084440Y-62671063D01*
X246969642Y-62567698D01*
X246875345Y-62499188D01*
X246704605Y-62375138D01*
X246423955Y-62213105D01*
X246420891Y-62211336D01*
X246420889Y-62211335D01*
X246170826Y-62100000D01*
X246121616Y-62078090D01*
X245810049Y-61976856D01*
X245810046Y-61976855D01*
X245489607Y-61908744D01*
X245163804Y-61874500D01*
X245163801Y-61874500D01*
X245061606Y-61874500D01*
X97503241Y-61874500D01*
X97496766Y-61874288D01*
X97261806Y-61858887D01*
X97248967Y-61857197D01*
X97021206Y-61811893D01*
X97008697Y-61808541D01*
X96788798Y-61733895D01*
X96776835Y-61728939D01*
X96568573Y-61626236D01*
X96557357Y-61619761D01*
X96364270Y-61490744D01*
X96353997Y-61482861D01*
X96179406Y-61329750D01*
X96170249Y-61320593D01*
X96017138Y-61146002D01*
X96009255Y-61135729D01*
X95880238Y-60942642D01*
X95873763Y-60931426D01*
X95771060Y-60723164D01*
X95766104Y-60711201D01*
X95691458Y-60491302D01*
X95688106Y-60478793D01*
X95642802Y-60251032D01*
X95641112Y-60238193D01*
X95625924Y-60006468D01*
X95625924Y-59993525D01*
X95636236Y-59836199D01*
X95641112Y-59761798D01*
X95642802Y-59748967D01*
X95688108Y-59521198D01*
X95691455Y-59508705D01*
X95766106Y-59288792D01*
X95771057Y-59276842D01*
X95873765Y-59068567D01*
X95880238Y-59057357D01*
X96009258Y-58864264D01*
X96017133Y-58854002D01*
X96170258Y-58679396D01*
X96179396Y-58670258D01*
X96354002Y-58517133D01*
X96364264Y-58509258D01*
X96557362Y-58380234D01*
X96568567Y-58373765D01*
X96776842Y-58271057D01*
X96788792Y-58266106D01*
X97008705Y-58191455D01*
X97021198Y-58188108D01*
X97248973Y-58142801D01*
X97261798Y-58141112D01*
X97496766Y-58125712D01*
X97503241Y-58125500D01*
X235163798Y-58125500D01*
X235163801Y-58125500D01*
X235489607Y-58091256D01*
X235810049Y-58023144D01*
X236121616Y-57921910D01*
X236420894Y-57788662D01*
X236704605Y-57624862D01*
X236969640Y-57432303D01*
X237213095Y-57213095D01*
X237432303Y-56969640D01*
X237624862Y-56704605D01*
X237788662Y-56420894D01*
X237921910Y-56121616D01*
X238023144Y-55810049D01*
X238091256Y-55489607D01*
X238125500Y-55163801D01*
X238125500Y-55000000D01*
X238125500Y-54924051D01*
X238125500Y-54836199D01*
X238091256Y-54510393D01*
X238023144Y-54189951D01*
X237921910Y-53878384D01*
X237788662Y-53579106D01*
X237624862Y-53295395D01*
X237432303Y-53030360D01*
X237432301Y-53030357D01*
X237213105Y-52786916D01*
X237213104Y-52786915D01*
X237213095Y-52786905D01*
X237168342Y-52746609D01*
X236969642Y-52567698D01*
X236770250Y-52422832D01*
X236704605Y-52375138D01*
X236420894Y-52211338D01*
X236420896Y-52211338D01*
X236420891Y-52211336D01*
X236420889Y-52211335D01*
X236195986Y-52111202D01*
X236121616Y-52078090D01*
X235810049Y-51976856D01*
X235810046Y-51976855D01*
X235489607Y-51908744D01*
X235163804Y-51874500D01*
X235163801Y-51874500D01*
X235061606Y-51874500D01*
X92575949Y-51874500D01*
X92500000Y-51874500D01*
X92336199Y-51874500D01*
X92336195Y-51874500D01*
X92010392Y-51908744D01*
X91689953Y-51976855D01*
X91588531Y-52009809D01*
X91378384Y-52078090D01*
X91378377Y-52078092D01*
X91378377Y-52078093D01*
X91079110Y-52211335D01*
X91079108Y-52211336D01*
X90922961Y-52301487D01*
X90795395Y-52375138D01*
X90795391Y-52375141D01*
X90530357Y-52567698D01*
X90286916Y-52786894D01*
X90286894Y-52786916D01*
X90067698Y-53030357D01*
X89896419Y-53266104D01*
X89875138Y-53295395D01*
X89828234Y-53376635D01*
X89711336Y-53579108D01*
X89711335Y-53579110D01*
X89588948Y-53853997D01*
X89578090Y-53878384D01*
X89519938Y-54057357D01*
X89476855Y-54189953D01*
X89408744Y-54510392D01*
X89374500Y-54836195D01*
X89374500Y-69996759D01*
X89374288Y-70003234D01*
X89359315Y-70231668D01*
X89357625Y-70244507D01*
X89313597Y-70465852D01*
X89310245Y-70478360D01*
X89237703Y-70692062D01*
X89232747Y-70704027D01*
X89132931Y-70906434D01*
X89126456Y-70917649D01*
X89001079Y-71105288D01*
X88993196Y-71115561D01*
X88844394Y-71285237D01*
X88835237Y-71294394D01*
X88665561Y-71443196D01*
X88655288Y-71451079D01*
X88467643Y-71576459D01*
X88456434Y-71582931D01*
X88254027Y-71682747D01*
X88242062Y-71687703D01*
X88028360Y-71760245D01*
X88015852Y-71763597D01*
X87794507Y-71807625D01*
X87781668Y-71809315D01*
X87553234Y-71824288D01*
X87546759Y-71824500D01*
X78924500Y-71824500D01*
X78866309Y-71805593D01*
X78830345Y-71756093D01*
X78825500Y-71725500D01*
X78825500Y-64130428D01*
X78844407Y-64072237D01*
X78854497Y-64060424D01*
X78977131Y-63937790D01*
X78977139Y-63937782D01*
X79086632Y-63773914D01*
X79162051Y-63591835D01*
X79200500Y-63398541D01*
X79200500Y-63201459D01*
X79162051Y-63008165D01*
X79086632Y-62826086D01*
X78977139Y-62662218D01*
X78837782Y-62522861D01*
X78673914Y-62413368D01*
X78673915Y-62413368D01*
X78673913Y-62413367D01*
X78491835Y-62337949D01*
X78298543Y-62299500D01*
X78298541Y-62299500D01*
X78101459Y-62299500D01*
X78101456Y-62299500D01*
X77908165Y-62337949D01*
X77908163Y-62337949D01*
X77726086Y-62413367D01*
X77562218Y-62522861D01*
X77562214Y-62522864D01*
X77422864Y-62662214D01*
X77422861Y-62662218D01*
X77313367Y-62826086D01*
X77237949Y-63008163D01*
X77237949Y-63008165D01*
X77199500Y-63201456D01*
X77199500Y-63398543D01*
X77223091Y-63517138D01*
X77236160Y-63582843D01*
X77237949Y-63591834D01*
X77237949Y-63591836D01*
X77313367Y-63773913D01*
X77313368Y-63773914D01*
X77422861Y-63937782D01*
X77422864Y-63937785D01*
X77422868Y-63937790D01*
X77545503Y-64060424D01*
X77573281Y-64114941D01*
X77574500Y-64130428D01*
X77574500Y-71725500D01*
X77555593Y-71783691D01*
X77506093Y-71819655D01*
X77475500Y-71824500D01*
X64130428Y-71824500D01*
X64072237Y-71805593D01*
X64060424Y-71795503D01*
X63937790Y-71672868D01*
X63937785Y-71672864D01*
X63937782Y-71672861D01*
X63773914Y-71563368D01*
X63773915Y-71563368D01*
X63773913Y-71563367D01*
X63591835Y-71487949D01*
X63398543Y-71449500D01*
X63398541Y-71449500D01*
X63201459Y-71449500D01*
X63201456Y-71449500D01*
X63008165Y-71487949D01*
X63008163Y-71487949D01*
X62826086Y-71563367D01*
X62662218Y-71672861D01*
X62662214Y-71672864D01*
X62522864Y-71812214D01*
X62522861Y-71812218D01*
X62413367Y-71976086D01*
X62337949Y-72158163D01*
X62337949Y-72158165D01*
X62299500Y-72351456D01*
X62299500Y-72548543D01*
X62337949Y-72741834D01*
X62337949Y-72741836D01*
X62413367Y-72923913D01*
X62413368Y-72923914D01*
X62522861Y-73087782D01*
X62662218Y-73227139D01*
X62826086Y-73336632D01*
X63008165Y-73412051D01*
X63201459Y-73450500D01*
X63201460Y-73450500D01*
X63398540Y-73450500D01*
X63398541Y-73450500D01*
X63591835Y-73412051D01*
X63773914Y-73336632D01*
X63937782Y-73227139D01*
X64060424Y-73104497D01*
X64114941Y-73076719D01*
X64130428Y-73075500D01*
X78143579Y-73075500D01*
X78204421Y-73075500D01*
X78279330Y-73075716D01*
X78280217Y-73075500D01*
X87474051Y-73075500D01*
X87550000Y-73075500D01*
X87711180Y-73075500D01*
X88031775Y-73041805D01*
X88347090Y-72974782D01*
X88653673Y-72875167D01*
X88948164Y-72744052D01*
X89227336Y-72582871D01*
X89488131Y-72393393D01*
X89727692Y-72177692D01*
X89943393Y-71938131D01*
X90132871Y-71677336D01*
X90294052Y-71398164D01*
X90425167Y-71103673D01*
X90524782Y-70797090D01*
X90591805Y-70481775D01*
X90625500Y-70161180D01*
X90625500Y-70000000D01*
X90625500Y-69924051D01*
X90625500Y-55003240D01*
X90625712Y-54996765D01*
X90636236Y-54836199D01*
X90641112Y-54761798D01*
X90642802Y-54748967D01*
X90670015Y-54612158D01*
X90688108Y-54521198D01*
X90691455Y-54508705D01*
X90766106Y-54288792D01*
X90771057Y-54276842D01*
X90873765Y-54068567D01*
X90880238Y-54057357D01*
X91009258Y-53864264D01*
X91017133Y-53854002D01*
X91170258Y-53679396D01*
X91179396Y-53670258D01*
X91354002Y-53517133D01*
X91364264Y-53509258D01*
X91557362Y-53380234D01*
X91568567Y-53373765D01*
X91776842Y-53271057D01*
X91788792Y-53266106D01*
X92008705Y-53191455D01*
X92021198Y-53188108D01*
X92248973Y-53142801D01*
X92261798Y-53141112D01*
X92496766Y-53125712D01*
X92503241Y-53125500D01*
X92575949Y-53125500D01*
X234924051Y-53125500D01*
X234996759Y-53125500D01*
X235003234Y-53125712D01*
X235238199Y-53141112D01*
X235251027Y-53142801D01*
X235478797Y-53188107D01*
X235491297Y-53191456D01*
X235711201Y-53266104D01*
X235723164Y-53271060D01*
X235931426Y-53373763D01*
X235942642Y-53380238D01*
X236135729Y-53509255D01*
X236146002Y-53517138D01*
X236320593Y-53670249D01*
X236329750Y-53679406D01*
X236482861Y-53853997D01*
X236490744Y-53864270D01*
X236619761Y-54057357D01*
X236626236Y-54068573D01*
X236728939Y-54276835D01*
X236733895Y-54288798D01*
X236808541Y-54508697D01*
X236811893Y-54521206D01*
X236857197Y-54748967D01*
X236858887Y-54761806D01*
X236874075Y-54993525D01*
X236874075Y-55006475D01*
X236858887Y-55238193D01*
X236857197Y-55251032D01*
X236811893Y-55478793D01*
X236808541Y-55491302D01*
X236733895Y-55711201D01*
X236728939Y-55723164D01*
X236626236Y-55931426D01*
X236619761Y-55942642D01*
X236490744Y-56135729D01*
X236482861Y-56146002D01*
X236329750Y-56320593D01*
X236320593Y-56329750D01*
X236146002Y-56482861D01*
X236135729Y-56490744D01*
X235942642Y-56619761D01*
X235931426Y-56626236D01*
X235723164Y-56728939D01*
X235711201Y-56733895D01*
X235491302Y-56808541D01*
X235478793Y-56811893D01*
X235251032Y-56857197D01*
X235238193Y-56858887D01*
X235003234Y-56874288D01*
X234996759Y-56874500D01*
X97336195Y-56874500D01*
X97010392Y-56908744D01*
X96689953Y-56976855D01*
X96588531Y-57009809D01*
X96378384Y-57078090D01*
X96378377Y-57078092D01*
X96378377Y-57078093D01*
X96079110Y-57211335D01*
X96079108Y-57211336D01*
X95932170Y-57296171D01*
X95795395Y-57375138D01*
X95795391Y-57375141D01*
X95530357Y-57567698D01*
X95286916Y-57786894D01*
X95286894Y-57786916D01*
X95067698Y-58030357D01*
X94896419Y-58266104D01*
X94875138Y-58295395D01*
X94828234Y-58376635D01*
X94711336Y-58579108D01*
X94711335Y-58579110D01*
X94588948Y-58853997D01*
X94578090Y-58878384D01*
X94519938Y-59057357D01*
X94476855Y-59189953D01*
X94408744Y-59510392D01*
X94383669Y-59748967D01*
X94374500Y-59836199D01*
X94374500Y-59924051D01*
X94374500Y-60000000D01*
X94374500Y-60163801D01*
X94408744Y-60489607D01*
X94476856Y-60810049D01*
X94578090Y-61121616D01*
X94617808Y-61210825D01*
X94711335Y-61420889D01*
X94711336Y-61420891D01*
X94711338Y-61420894D01*
X94875138Y-61704605D01*
X94986922Y-61858463D01*
X95067698Y-61969642D01*
X95211677Y-62129546D01*
X95286905Y-62213095D01*
X95286915Y-62213104D01*
X95286916Y-62213105D01*
X95530357Y-62432301D01*
X95530360Y-62432303D01*
X95795395Y-62624862D01*
X96079106Y-62788662D01*
X96378384Y-62921910D01*
X96689951Y-63023144D01*
X97010393Y-63091256D01*
X97336199Y-63125500D01*
X97438394Y-63125500D01*
X244924051Y-63125500D01*
X244996759Y-63125500D01*
X245003234Y-63125712D01*
X245238199Y-63141112D01*
X245251027Y-63142801D01*
X245478797Y-63188107D01*
X245491297Y-63191456D01*
X245711201Y-63266104D01*
X245723164Y-63271060D01*
X245931426Y-63373763D01*
X245942642Y-63380238D01*
X246135729Y-63509255D01*
X246146002Y-63517138D01*
X246320593Y-63670249D01*
X246329750Y-63679406D01*
X246482861Y-63853997D01*
X246490744Y-63864270D01*
X246619761Y-64057357D01*
X246626236Y-64068573D01*
X246728939Y-64276835D01*
X246733895Y-64288798D01*
X246808541Y-64508697D01*
X246811893Y-64521206D01*
X246857197Y-64748967D01*
X246858887Y-64761806D01*
X246874075Y-64993525D01*
X246874075Y-65006475D01*
X246858887Y-65238193D01*
X246857197Y-65251032D01*
X246811893Y-65478793D01*
X246808541Y-65491302D01*
X246733895Y-65711201D01*
X246728939Y-65723164D01*
X246626236Y-65931426D01*
X246619761Y-65942642D01*
X246490744Y-66135729D01*
X246482861Y-66146002D01*
X246329750Y-66320593D01*
X246320593Y-66329750D01*
X246146002Y-66482861D01*
X246135729Y-66490744D01*
X245942642Y-66619761D01*
X245931426Y-66626236D01*
X245723164Y-66728939D01*
X245711201Y-66733895D01*
X245491302Y-66808541D01*
X245478793Y-66811893D01*
X245251032Y-66857197D01*
X245238193Y-66858887D01*
X245003234Y-66874288D01*
X244996759Y-66874500D01*
X97336195Y-66874500D01*
X97010392Y-66908744D01*
X96689953Y-66976855D01*
X96588531Y-67009809D01*
X96378384Y-67078090D01*
X96378377Y-67078092D01*
X96378377Y-67078093D01*
X96079110Y-67211335D01*
X96079108Y-67211336D01*
X95922961Y-67301487D01*
X95795395Y-67375138D01*
X95795391Y-67375141D01*
X95530357Y-67567698D01*
X95286916Y-67786894D01*
X95286894Y-67786916D01*
X95067698Y-68030357D01*
X94896419Y-68266104D01*
X94875138Y-68295395D01*
X94828234Y-68376635D01*
X94711336Y-68579108D01*
X94711335Y-68579110D01*
X94588948Y-68853997D01*
X94578090Y-68878384D01*
X94519938Y-69057357D01*
X94476855Y-69189953D01*
X94408744Y-69510392D01*
X94374500Y-69836195D01*
X94374500Y-70163804D01*
X94383000Y-70244671D01*
X94408744Y-70489607D01*
X94476856Y-70810049D01*
X94578090Y-71121616D01*
X94617808Y-71210825D01*
X94711335Y-71420889D01*
X94711336Y-71420891D01*
X94711338Y-71420894D01*
X94875138Y-71704605D01*
X94986922Y-71858463D01*
X95067698Y-71969642D01*
X95255017Y-72177680D01*
X95286905Y-72213095D01*
X95286915Y-72213104D01*
X95286916Y-72213105D01*
X95530357Y-72432301D01*
X95530360Y-72432303D01*
X95795395Y-72624862D01*
X96079106Y-72788662D01*
X96378384Y-72921910D01*
X96689951Y-73023144D01*
X97010393Y-73091256D01*
X97336199Y-73125500D01*
X97438394Y-73125500D01*
X244924051Y-73125500D01*
X244996759Y-73125500D01*
X245003234Y-73125712D01*
X245238199Y-73141112D01*
X245251027Y-73142801D01*
X245478797Y-73188107D01*
X245491297Y-73191456D01*
X245596411Y-73227138D01*
X245711201Y-73266104D01*
X245723164Y-73271060D01*
X245931426Y-73373763D01*
X245942642Y-73380238D01*
X246135729Y-73509255D01*
X246146002Y-73517138D01*
X246320593Y-73670249D01*
X246329750Y-73679406D01*
X246482861Y-73853997D01*
X246490744Y-73864270D01*
X246619761Y-74057357D01*
X246626236Y-74068573D01*
X246728939Y-74276835D01*
X246733895Y-74288798D01*
X246808541Y-74508697D01*
X246811893Y-74521206D01*
X246857197Y-74748967D01*
X246858887Y-74761806D01*
X246874075Y-74993525D01*
X246874075Y-75006475D01*
X246858887Y-75238193D01*
X246857197Y-75251032D01*
X246811893Y-75478793D01*
X246808541Y-75491302D01*
X246733895Y-75711201D01*
X246728939Y-75723164D01*
X246626236Y-75931426D01*
X246619761Y-75942642D01*
X246490744Y-76135729D01*
X246482861Y-76146002D01*
X246329750Y-76320593D01*
X246320593Y-76329750D01*
X246146002Y-76482861D01*
X246135729Y-76490744D01*
X245942642Y-76619761D01*
X245931426Y-76626236D01*
X245723164Y-76728939D01*
X245711201Y-76733895D01*
X245491302Y-76808541D01*
X245478793Y-76811893D01*
X245251032Y-76857197D01*
X245238193Y-76858887D01*
X245003234Y-76874288D01*
X244996759Y-76874500D01*
X69836195Y-76874500D01*
X69510392Y-76908744D01*
X69189953Y-76976855D01*
X69088531Y-77009809D01*
X68878384Y-77078090D01*
X68878377Y-77078092D01*
X68878377Y-77078093D01*
X68579110Y-77211335D01*
X68579108Y-77211336D01*
X68422961Y-77301487D01*
X68295395Y-77375138D01*
X68295391Y-77375141D01*
X68030357Y-77567698D01*
X67786916Y-77786894D01*
X67786894Y-77786916D01*
X67567698Y-78030357D01*
X67396419Y-78266104D01*
X67375138Y-78295395D01*
X67328234Y-78376635D01*
X67211336Y-78579108D01*
X67211335Y-78579110D01*
X67088948Y-78853997D01*
X67078090Y-78878384D01*
X67019938Y-79057357D01*
X66976855Y-79189953D01*
X66908744Y-79510392D01*
X66883669Y-79748967D01*
X66874500Y-79836199D01*
X66874500Y-79924051D01*
X66874500Y-80000000D01*
X66874500Y-80163801D01*
X66908744Y-80489607D01*
X66976856Y-80810049D01*
X67078090Y-81121616D01*
X67117808Y-81210825D01*
X67211335Y-81420889D01*
X67211336Y-81420891D01*
X67211338Y-81420894D01*
X67375138Y-81704605D01*
X67486922Y-81858463D01*
X67567698Y-81969642D01*
X67785320Y-82211335D01*
X67786905Y-82213095D01*
X67786915Y-82213104D01*
X67786916Y-82213105D01*
X68030357Y-82432301D01*
X68030360Y-82432303D01*
X68295395Y-82624862D01*
X68579106Y-82788662D01*
X68878384Y-82921910D01*
X69189951Y-83023144D01*
X69510393Y-83091256D01*
X69836199Y-83125500D01*
X69938394Y-83125500D01*
X244924051Y-83125500D01*
X244996759Y-83125500D01*
X245003234Y-83125712D01*
X245238199Y-83141112D01*
X245251027Y-83142801D01*
X245478797Y-83188107D01*
X245491297Y-83191456D01*
X245711201Y-83266104D01*
X245723164Y-83271060D01*
X245931426Y-83373763D01*
X245942642Y-83380238D01*
X246135729Y-83509255D01*
X246146002Y-83517138D01*
X246320593Y-83670249D01*
X246329750Y-83679406D01*
X246482861Y-83853997D01*
X246490744Y-83864270D01*
X246619761Y-84057357D01*
X246626236Y-84068573D01*
X246728939Y-84276835D01*
X246733895Y-84288798D01*
X246808541Y-84508697D01*
X246811893Y-84521206D01*
X246857197Y-84748967D01*
X246858887Y-84761806D01*
X246874075Y-84993525D01*
X246874075Y-85006475D01*
X246858887Y-85238193D01*
X246857197Y-85251032D01*
X246811893Y-85478793D01*
X246808541Y-85491302D01*
X246733895Y-85711201D01*
X246728939Y-85723164D01*
X246626236Y-85931426D01*
X246619761Y-85942642D01*
X246490744Y-86135729D01*
X246482861Y-86146002D01*
X246329750Y-86320593D01*
X246320593Y-86329750D01*
X246146002Y-86482861D01*
X246135729Y-86490744D01*
X245942642Y-86619761D01*
X245931426Y-86626236D01*
X245723164Y-86728939D01*
X245711201Y-86733895D01*
X245491302Y-86808541D01*
X245478793Y-86811893D01*
X245251032Y-86857197D01*
X245238193Y-86858887D01*
X245003234Y-86874288D01*
X244996759Y-86874500D01*
X54836195Y-86874500D01*
X54510392Y-86908744D01*
X54189953Y-86976855D01*
X54088531Y-87009809D01*
X53878384Y-87078090D01*
X53878377Y-87078092D01*
X53878377Y-87078093D01*
X53579110Y-87211335D01*
X53579108Y-87211336D01*
X53422961Y-87301487D01*
X53295395Y-87375138D01*
X53295391Y-87375141D01*
X53030357Y-87567698D01*
X52786916Y-87786894D01*
X52786894Y-87786916D01*
X52567698Y-88030357D01*
X52396419Y-88266104D01*
X52375138Y-88295395D01*
X52328234Y-88376635D01*
X52211336Y-88579108D01*
X52211335Y-88579110D01*
X52088948Y-88853997D01*
X52078090Y-88878384D01*
X52019938Y-89057357D01*
X51976855Y-89189953D01*
X51908744Y-89510392D01*
X51883669Y-89748967D01*
X51874500Y-89836199D01*
X50500500Y-89836199D01*
X50500500Y-77401579D01*
X56999500Y-77401579D01*
X56999500Y-77598420D01*
X57030289Y-77792821D01*
X57091116Y-77980025D01*
X57165346Y-78125712D01*
X57180476Y-78155405D01*
X57296172Y-78314646D01*
X57435354Y-78453828D01*
X57594595Y-78569524D01*
X57769975Y-78658884D01*
X57957174Y-78719709D01*
X57957175Y-78719709D01*
X57957178Y-78719710D01*
X58151580Y-78750500D01*
X58151583Y-78750500D01*
X58348420Y-78750500D01*
X58542821Y-78719710D01*
X58542822Y-78719709D01*
X58542826Y-78719709D01*
X58730025Y-78658884D01*
X58905405Y-78569524D01*
X59064646Y-78453828D01*
X59203828Y-78314646D01*
X59319524Y-78155405D01*
X59408884Y-77980025D01*
X59469709Y-77792826D01*
X59470368Y-77788664D01*
X59500500Y-77598420D01*
X59500500Y-77401579D01*
X59469710Y-77207178D01*
X59469709Y-77207174D01*
X59408884Y-77019975D01*
X59319524Y-76844595D01*
X59203828Y-76685354D01*
X59064646Y-76546172D01*
X58905405Y-76430476D01*
X58905404Y-76430475D01*
X58905402Y-76430474D01*
X58730025Y-76341116D01*
X58542821Y-76280289D01*
X58348420Y-76249500D01*
X58348417Y-76249500D01*
X58151583Y-76249500D01*
X58151580Y-76249500D01*
X57957178Y-76280289D01*
X57769974Y-76341116D01*
X57594597Y-76430474D01*
X57435355Y-76546171D01*
X57296171Y-76685355D01*
X57180474Y-76844597D01*
X57091116Y-77019974D01*
X57030289Y-77207178D01*
X56999500Y-77401579D01*
X50500500Y-77401579D01*
X50500500Y-74855554D01*
X62100000Y-74855554D01*
X62100000Y-75044445D01*
X62129546Y-75230996D01*
X62187914Y-75410635D01*
X62273667Y-75578936D01*
X62273671Y-75578942D01*
X62321871Y-75645283D01*
X62872804Y-75094349D01*
X62880667Y-75123694D01*
X62939910Y-75226306D01*
X63023694Y-75310090D01*
X63126306Y-75369333D01*
X63155646Y-75377194D01*
X62604715Y-75928126D01*
X62604715Y-75928127D01*
X62671057Y-75976328D01*
X62671063Y-75976332D01*
X62839364Y-76062085D01*
X63019003Y-76120453D01*
X63205555Y-76150000D01*
X63394445Y-76150000D01*
X63580996Y-76120453D01*
X63760635Y-76062085D01*
X63928939Y-75976330D01*
X63995283Y-75928127D01*
X63444351Y-75377195D01*
X63473694Y-75369333D01*
X63576306Y-75310090D01*
X63660090Y-75226306D01*
X63719333Y-75123694D01*
X63727195Y-75094351D01*
X64278127Y-75645283D01*
X64326330Y-75578939D01*
X64412085Y-75410635D01*
X64470453Y-75230996D01*
X64500000Y-75044445D01*
X64500000Y-74855554D01*
X64470453Y-74669003D01*
X64412085Y-74489364D01*
X64326332Y-74321063D01*
X64326328Y-74321057D01*
X64278127Y-74254715D01*
X64278126Y-74254715D01*
X63727194Y-74805646D01*
X63719333Y-74776306D01*
X63660090Y-74673694D01*
X63576306Y-74589910D01*
X63473694Y-74530667D01*
X63444349Y-74522804D01*
X63995283Y-73971871D01*
X63928942Y-73923671D01*
X63928936Y-73923667D01*
X63760635Y-73837914D01*
X63580996Y-73779546D01*
X63394445Y-73750000D01*
X63205555Y-73750000D01*
X63019003Y-73779546D01*
X62839364Y-73837914D01*
X62671063Y-73923667D01*
X62671059Y-73923669D01*
X62604715Y-73971871D01*
X63155648Y-74522804D01*
X63126306Y-74530667D01*
X63023694Y-74589910D01*
X62939910Y-74673694D01*
X62880667Y-74776306D01*
X62872804Y-74805648D01*
X62321871Y-74254715D01*
X62273669Y-74321059D01*
X62273667Y-74321063D01*
X62187914Y-74489364D01*
X62129546Y-74669003D01*
X62100000Y-74855554D01*
X50500500Y-74855554D01*
X50500500Y-67301579D01*
X56999500Y-67301579D01*
X56999500Y-67498420D01*
X57030289Y-67692821D01*
X57061431Y-67788664D01*
X57091116Y-67880025D01*
X57180476Y-68055405D01*
X57296172Y-68214646D01*
X57435354Y-68353828D01*
X57594595Y-68469524D01*
X57769975Y-68558884D01*
X57957174Y-68619709D01*
X57957175Y-68619709D01*
X57957178Y-68619710D01*
X58151580Y-68650500D01*
X58151583Y-68650500D01*
X58348420Y-68650500D01*
X58542821Y-68619710D01*
X58542822Y-68619709D01*
X58542826Y-68619709D01*
X58730025Y-68558884D01*
X58905405Y-68469524D01*
X59064646Y-68353828D01*
X59203828Y-68214646D01*
X59319524Y-68055405D01*
X59408884Y-67880025D01*
X59469709Y-67692826D01*
X59469710Y-67692821D01*
X59500500Y-67498420D01*
X59500500Y-67301579D01*
X59469710Y-67107178D01*
X59460259Y-67078090D01*
X59408884Y-66919975D01*
X59319524Y-66744595D01*
X59203828Y-66585354D01*
X59064646Y-66446172D01*
X58905405Y-66330476D01*
X58905404Y-66330475D01*
X58905402Y-66330474D01*
X58730025Y-66241116D01*
X58542821Y-66180289D01*
X58348420Y-66149500D01*
X58348417Y-66149500D01*
X58151583Y-66149500D01*
X58151580Y-66149500D01*
X57957178Y-66180289D01*
X57769974Y-66241116D01*
X57594597Y-66330474D01*
X57435355Y-66446171D01*
X57296171Y-66585355D01*
X57180474Y-66744597D01*
X57091116Y-66919974D01*
X57030289Y-67107178D01*
X56999500Y-67301579D01*
X50500500Y-67301579D01*
X50500500Y-63205554D01*
X74500000Y-63205554D01*
X74500000Y-63394445D01*
X74529546Y-63580996D01*
X74587914Y-63760635D01*
X74673667Y-63928936D01*
X74673671Y-63928942D01*
X74721871Y-63995283D01*
X75272804Y-63444349D01*
X75280667Y-63473694D01*
X75339910Y-63576306D01*
X75423694Y-63660090D01*
X75526306Y-63719333D01*
X75555646Y-63727194D01*
X75004715Y-64278126D01*
X75004715Y-64278127D01*
X75071057Y-64326328D01*
X75071063Y-64326332D01*
X75239364Y-64412085D01*
X75419003Y-64470453D01*
X75605555Y-64500000D01*
X75794445Y-64500000D01*
X75980996Y-64470453D01*
X76160635Y-64412085D01*
X76328939Y-64326330D01*
X76395283Y-64278127D01*
X75844351Y-63727195D01*
X75873694Y-63719333D01*
X75976306Y-63660090D01*
X76060090Y-63576306D01*
X76119333Y-63473694D01*
X76127195Y-63444351D01*
X76678127Y-63995283D01*
X76726330Y-63928939D01*
X76812085Y-63760635D01*
X76870453Y-63580996D01*
X76900000Y-63394445D01*
X76900000Y-63205554D01*
X76870453Y-63019003D01*
X76812085Y-62839364D01*
X76726332Y-62671063D01*
X76726328Y-62671057D01*
X76678127Y-62604715D01*
X76678126Y-62604715D01*
X76127194Y-63155646D01*
X76119333Y-63126306D01*
X76060090Y-63023694D01*
X75976306Y-62939910D01*
X75873694Y-62880667D01*
X75844349Y-62872804D01*
X76395283Y-62321871D01*
X76328942Y-62273671D01*
X76328936Y-62273667D01*
X76160635Y-62187914D01*
X75980996Y-62129546D01*
X75794445Y-62100000D01*
X75605555Y-62100000D01*
X75419003Y-62129546D01*
X75239364Y-62187914D01*
X75071063Y-62273667D01*
X75071059Y-62273669D01*
X75004715Y-62321871D01*
X75555648Y-62872804D01*
X75526306Y-62880667D01*
X75423694Y-62939910D01*
X75339910Y-63023694D01*
X75280667Y-63126306D01*
X75272804Y-63155648D01*
X74721871Y-62604715D01*
X74673669Y-62671059D01*
X74673667Y-62671063D01*
X74587914Y-62839364D01*
X74529546Y-63019003D01*
X74500000Y-63205554D01*
X50500500Y-63205554D01*
X50500500Y-58151579D01*
X71899500Y-58151579D01*
X71899500Y-58348420D01*
X71930289Y-58542821D01*
X71991116Y-58730025D01*
X72066704Y-58878377D01*
X72080476Y-58905405D01*
X72196172Y-59064646D01*
X72335354Y-59203828D01*
X72494595Y-59319524D01*
X72669975Y-59408884D01*
X72857174Y-59469709D01*
X72857175Y-59469709D01*
X72857178Y-59469710D01*
X73051580Y-59500500D01*
X73051583Y-59500500D01*
X73248420Y-59500500D01*
X73442821Y-59469710D01*
X73442822Y-59469709D01*
X73442826Y-59469709D01*
X73630025Y-59408884D01*
X73805405Y-59319524D01*
X73964646Y-59203828D01*
X74103828Y-59064646D01*
X74219524Y-58905405D01*
X74308884Y-58730025D01*
X74369709Y-58542826D01*
X74373778Y-58517138D01*
X74400500Y-58348420D01*
X74400500Y-58151579D01*
X81999500Y-58151579D01*
X81999500Y-58348420D01*
X82030289Y-58542821D01*
X82091116Y-58730025D01*
X82166704Y-58878377D01*
X82180476Y-58905405D01*
X82296172Y-59064646D01*
X82435354Y-59203828D01*
X82594595Y-59319524D01*
X82769975Y-59408884D01*
X82957174Y-59469709D01*
X82957175Y-59469709D01*
X82957178Y-59469710D01*
X83151580Y-59500500D01*
X83151583Y-59500500D01*
X83348420Y-59500500D01*
X83542821Y-59469710D01*
X83542822Y-59469709D01*
X83542826Y-59469709D01*
X83730025Y-59408884D01*
X83905405Y-59319524D01*
X84064646Y-59203828D01*
X84203828Y-59064646D01*
X84319524Y-58905405D01*
X84408884Y-58730025D01*
X84469709Y-58542826D01*
X84473778Y-58517138D01*
X84500500Y-58348420D01*
X84500500Y-58151579D01*
X84469710Y-57957178D01*
X84458251Y-57921910D01*
X84408884Y-57769975D01*
X84319524Y-57594595D01*
X84203828Y-57435354D01*
X84064646Y-57296172D01*
X83905405Y-57180476D01*
X83905404Y-57180475D01*
X83905402Y-57180474D01*
X83730025Y-57091116D01*
X83542821Y-57030289D01*
X83348420Y-56999500D01*
X83348417Y-56999500D01*
X83151583Y-56999500D01*
X83151580Y-56999500D01*
X82957178Y-57030289D01*
X82769974Y-57091116D01*
X82594597Y-57180474D01*
X82435355Y-57296171D01*
X82296171Y-57435355D01*
X82180474Y-57594597D01*
X82091116Y-57769974D01*
X82030289Y-57957178D01*
X81999500Y-58151579D01*
X74400500Y-58151579D01*
X74369710Y-57957178D01*
X74358251Y-57921910D01*
X74308884Y-57769975D01*
X74219524Y-57594595D01*
X74103828Y-57435354D01*
X73964646Y-57296172D01*
X73805405Y-57180476D01*
X73805404Y-57180475D01*
X73805402Y-57180474D01*
X73630025Y-57091116D01*
X73442821Y-57030289D01*
X73248420Y-56999500D01*
X73248417Y-56999500D01*
X73051583Y-56999500D01*
X73051580Y-56999500D01*
X72857178Y-57030289D01*
X72669974Y-57091116D01*
X72494597Y-57180474D01*
X72335355Y-57296171D01*
X72196171Y-57435355D01*
X72080474Y-57594597D01*
X71991116Y-57769974D01*
X71930289Y-57957178D01*
X71899500Y-58151579D01*
X50500500Y-58151579D01*
X50500500Y-55002165D01*
X50500594Y-54997847D01*
X50503816Y-54924051D01*
X50517434Y-54612144D01*
X50518184Y-54603568D01*
X50568295Y-54222942D01*
X50569791Y-54214459D01*
X50652883Y-53839655D01*
X50655115Y-53831326D01*
X50705903Y-53670249D01*
X50770555Y-53465194D01*
X50773507Y-53457086D01*
X50785072Y-53429166D01*
X50920421Y-53102403D01*
X50924056Y-53094609D01*
X51101325Y-52754079D01*
X51105632Y-52746618D01*
X51311913Y-52422820D01*
X51316851Y-52415769D01*
X51550564Y-52111189D01*
X51556083Y-52104612D01*
X51815481Y-51821528D01*
X51821528Y-51815481D01*
X52104612Y-51556083D01*
X52111189Y-51550564D01*
X52415769Y-51316851D01*
X52422820Y-51311913D01*
X52746618Y-51105632D01*
X52754079Y-51101325D01*
X53094609Y-50924056D01*
X53102403Y-50920421D01*
X53457093Y-50773504D01*
X53465194Y-50770555D01*
X53831334Y-50655112D01*
X53839655Y-50652883D01*
X54214459Y-50569791D01*
X54222942Y-50568295D01*
X54603568Y-50518184D01*
X54612144Y-50517434D01*
X54997847Y-50500593D01*
X55002165Y-50500500D01*
X55065892Y-50500500D01*
X244934108Y-50500500D01*
X244997835Y-50500500D01*
X245002152Y-50500593D01*
G37*
%TD.AperFunction*%
%TD*%
M02*
