M48
; DRILL file {KiCad 9.0.3} date 2025-08-22T13:10:29-0400
; FORMAT={-:-/ absolute / metric / decimal}
; #@! TF.CreationDate,2025-08-22T13:10:29-04:00
; #@! TF.GenerationSoftware,Kicad,Pcbnew,9.0.3
; #@! TF.FileFunction,Plated,1,2,PTH
FMAT,2
METRIC
; #@! TA.AperFunction,Plated,PTH,ViaDrill
T1C0.300
; #@! TA.AperFunction,Plated,PTH,ComponentDrill
T2C0.900
; #@! TA.AperFunction,Plated,PTH,ComponentDrill
T3C3.200
%
G90
G05
T1
X55.0Y-60.0
X55.0Y-65.0
X55.0Y-70.0
X55.0Y-75.0
X55.0Y-80.0
X55.0Y-85.0
X55.0Y-90.0
X55.0Y-95.0
X55.0Y-100.0
X55.0Y-105.0
X55.0Y-110.0
X55.0Y-115.0
X55.0Y-120.0
X55.0Y-125.0
X55.0Y-130.0
X55.0Y-135.0
X55.0Y-140.0
X60.0Y-55.0
X60.0Y-60.0
X60.0Y-65.0
X60.0Y-70.0
X60.0Y-75.0
X60.0Y-80.0
X60.0Y-85.0
X60.0Y-90.0
X60.0Y-95.0
X60.0Y-100.0
X60.0Y-105.0
X60.0Y-110.0
X60.0Y-115.0
X60.0Y-120.0
X60.0Y-125.0
X60.0Y-130.0
X60.0Y-135.0
X60.0Y-140.0
X60.0Y-145.0
X65.0Y-55.0
X65.0Y-60.0
X65.0Y-65.0
X65.0Y-70.0
X65.0Y-75.0
X65.0Y-80.0
X65.0Y-85.0
X65.0Y-90.0
X65.0Y-95.0
X65.0Y-100.0
X65.0Y-105.0
X65.0Y-110.0
X65.0Y-115.0
X65.0Y-120.0
X65.0Y-125.0
X65.0Y-130.0
X65.0Y-135.0
X65.0Y-140.0
X65.0Y-145.0
X70.0Y-55.0
X70.0Y-60.0
X70.0Y-65.0
X70.0Y-70.0
X70.0Y-75.0
X70.0Y-80.0
X70.0Y-85.0
X70.0Y-90.0
X70.0Y-95.0
X70.0Y-100.0
X70.0Y-105.0
X70.0Y-110.0
X70.0Y-115.0
X70.0Y-120.0
X70.0Y-125.0
X70.0Y-130.0
X70.0Y-135.0
X70.0Y-140.0
X70.0Y-145.0
X75.0Y-55.0
X75.0Y-60.0
X75.0Y-65.0
X75.0Y-70.0
X75.0Y-75.0
X75.0Y-80.0
X75.0Y-85.0
X75.0Y-90.0
X75.0Y-95.0
X75.0Y-100.0
X75.0Y-105.0
X75.0Y-110.0
X75.0Y-115.0
X75.0Y-120.0
X75.0Y-125.0
X75.0Y-130.0
X75.0Y-135.0
X75.0Y-140.0
X75.0Y-145.0
X80.0Y-55.0
X80.0Y-60.0
X80.0Y-65.0
X80.0Y-70.0
X80.0Y-75.0
X80.0Y-80.0
X80.0Y-85.0
X80.0Y-90.0
X80.0Y-95.0
X80.0Y-100.0
X80.0Y-105.0
X80.0Y-110.0
X80.0Y-115.0
X80.0Y-120.0
X80.0Y-125.0
X80.0Y-130.0
X80.0Y-135.0
X80.0Y-140.0
X80.0Y-145.0
X85.0Y-55.0
X85.0Y-60.0
X85.0Y-65.0
X85.0Y-70.0
X85.0Y-75.0
X85.0Y-80.0
X85.0Y-85.0
X85.0Y-90.0
X85.0Y-95.0
X85.0Y-100.0
X85.0Y-105.0
X85.0Y-110.0
X85.0Y-115.0
X85.0Y-120.0
X85.0Y-125.0
X85.0Y-130.0
X85.0Y-135.0
X85.0Y-140.0
X85.0Y-145.0
X90.0Y-75.0
X90.0Y-80.0
X90.0Y-85.0
X90.0Y-90.0
X90.0Y-95.0
X90.0Y-100.0
X90.0Y-105.0
X90.0Y-110.0
X90.0Y-115.0
X90.0Y-120.0
X90.0Y-125.0
X90.0Y-130.0
X90.0Y-135.0
X90.0Y-140.0
X90.0Y-145.0
X95.0Y-55.0
X95.0Y-65.0
X95.0Y-75.0
X95.0Y-80.0
X95.0Y-85.0
X95.0Y-90.0
X95.0Y-95.0
X95.0Y-100.0
X95.0Y-105.0
X95.0Y-110.0
X95.0Y-115.0
X95.0Y-120.0
X95.0Y-125.0
X95.0Y-130.0
X95.0Y-135.0
X95.0Y-140.0
X95.0Y-145.0
X100.0Y-55.0
X100.0Y-60.0
X100.0Y-65.0
X100.0Y-70.0
X100.0Y-75.0
X100.0Y-80.0
X100.0Y-85.0
X100.0Y-90.0
X100.0Y-95.0
X100.0Y-100.0
X100.0Y-105.0
X100.0Y-110.0
X100.0Y-115.0
X100.0Y-120.0
X100.0Y-125.0
X100.0Y-130.0
X100.0Y-135.0
X100.0Y-140.0
X100.0Y-145.0
X105.0Y-55.0
X105.0Y-60.0
X105.0Y-65.0
X105.0Y-70.0
X105.0Y-75.0
X105.0Y-80.0
X105.0Y-85.0
X105.0Y-90.0
X105.0Y-95.0
X105.0Y-100.0
X105.0Y-105.0
X105.0Y-110.0
X105.0Y-115.0
X105.0Y-120.0
X105.0Y-125.0
X105.0Y-130.0
X105.0Y-135.0
X105.0Y-140.0
X105.0Y-145.0
X110.0Y-55.0
X110.0Y-60.0
X110.0Y-65.0
X110.0Y-70.0
X110.0Y-75.0
X110.0Y-80.0
X110.0Y-85.0
X110.0Y-90.0
X110.0Y-95.0
X110.0Y-100.0
X110.0Y-105.0
X110.0Y-110.0
X110.0Y-115.0
X110.0Y-120.0
X110.0Y-125.0
X110.0Y-130.0
X110.0Y-135.0
X110.0Y-140.0
X110.0Y-145.0
X115.0Y-55.0
X115.0Y-60.0
X115.0Y-65.0
X115.0Y-70.0
X115.0Y-75.0
X115.0Y-80.0
X115.0Y-85.0
X115.0Y-90.0
X115.0Y-95.0
X115.0Y-100.0
X115.0Y-105.0
X115.0Y-110.0
X115.0Y-115.0
X115.0Y-120.0
X115.0Y-125.0
X115.0Y-130.0
X115.0Y-135.0
X115.0Y-140.0
X115.0Y-145.0
X120.0Y-55.0
X120.0Y-60.0
X120.0Y-65.0
X120.0Y-70.0
X120.0Y-75.0
X120.0Y-80.0
X120.0Y-85.0
X120.0Y-90.0
X120.0Y-95.0
X120.0Y-100.0
X120.0Y-105.0
X120.0Y-110.0
X120.0Y-115.0
X120.0Y-120.0
X120.0Y-125.0
X120.0Y-130.0
X120.0Y-135.0
X120.0Y-140.0
X120.0Y-145.0
X125.0Y-55.0
X125.0Y-60.0
X125.0Y-65.0
X125.0Y-70.0
X125.0Y-75.0
X125.0Y-80.0
X125.0Y-85.0
X125.0Y-90.0
X125.0Y-95.0
X125.0Y-100.0
X125.0Y-105.0
X125.0Y-110.0
X125.0Y-115.0
X125.0Y-120.0
X125.0Y-125.0
X125.0Y-130.0
X125.0Y-135.0
X125.0Y-140.0
X125.0Y-145.0
X130.0Y-55.0
X130.0Y-60.0
X130.0Y-65.0
X130.0Y-70.0
X130.0Y-75.0
X130.0Y-80.0
X130.0Y-85.0
X130.0Y-90.0
X130.0Y-95.0
X130.0Y-100.0
X130.0Y-105.0
X130.0Y-110.0
X130.0Y-115.0
X130.0Y-120.0
X130.0Y-125.0
X130.0Y-130.0
X130.0Y-135.0
X130.0Y-140.0
X130.0Y-145.0
X135.0Y-55.0
X135.0Y-60.0
X135.0Y-65.0
X135.0Y-70.0
X135.0Y-75.0
X135.0Y-80.0
X135.0Y-85.0
X135.0Y-90.0
X135.0Y-95.0
X135.0Y-100.0
X135.0Y-105.0
X135.0Y-110.0
X135.0Y-115.0
X135.0Y-120.0
X135.0Y-125.0
X135.0Y-130.0
X135.0Y-135.0
X135.0Y-140.0
X135.0Y-145.0
X140.0Y-55.0
X140.0Y-60.0
X140.0Y-65.0
X140.0Y-70.0
X140.0Y-75.0
X140.0Y-80.0
X140.0Y-85.0
X140.0Y-90.0
X140.0Y-95.0
X140.0Y-100.0
X140.0Y-105.0
X140.0Y-110.0
X140.0Y-115.0
X140.0Y-120.0
X140.0Y-125.0
X140.0Y-130.0
X140.0Y-135.0
X140.0Y-140.0
X140.0Y-145.0
X145.0Y-55.0
X145.0Y-60.0
X145.0Y-65.0
X145.0Y-70.0
X145.0Y-75.0
X145.0Y-80.0
X145.0Y-85.0
X145.0Y-90.0
X145.0Y-95.0
X145.0Y-100.0
X145.0Y-105.0
X145.0Y-110.0
X145.0Y-115.0
X145.0Y-120.0
X145.0Y-125.0
X145.0Y-130.0
X145.0Y-135.0
X145.0Y-140.0
X145.0Y-145.0
X150.0Y-55.0
X150.0Y-60.0
X150.0Y-65.0
X150.0Y-70.0
X150.0Y-75.0
X150.0Y-80.0
X150.0Y-85.0
X150.0Y-90.0
X150.0Y-95.0
X150.0Y-100.0
X150.0Y-105.0
X150.0Y-110.0
X150.0Y-115.0
X150.0Y-120.0
X150.0Y-125.0
X150.0Y-130.0
X150.0Y-135.0
X150.0Y-140.0
X150.0Y-145.0
X155.0Y-55.0
X155.0Y-60.0
X155.0Y-65.0
X155.0Y-70.0
X155.0Y-75.0
X155.0Y-80.0
X155.0Y-85.0
X155.0Y-90.0
X155.0Y-95.0
X155.0Y-100.0
X155.0Y-105.0
X155.0Y-110.0
X155.0Y-115.0
X155.0Y-120.0
X155.0Y-125.0
X155.0Y-130.0
X155.0Y-135.0
X155.0Y-140.0
X155.0Y-145.0
X160.0Y-55.0
X160.0Y-60.0
X160.0Y-65.0
X160.0Y-70.0
X160.0Y-75.0
X160.0Y-80.0
X160.0Y-85.0
X160.0Y-90.0
X160.0Y-95.0
X160.0Y-100.0
X160.0Y-105.0
X160.0Y-110.0
X160.0Y-115.0
X160.0Y-120.0
X160.0Y-125.0
X160.0Y-130.0
X160.0Y-135.0
X160.0Y-140.0
X160.0Y-145.0
X165.0Y-55.0
X165.0Y-60.0
X165.0Y-65.0
X165.0Y-70.0
X165.0Y-75.0
X165.0Y-80.0
X165.0Y-85.0
X165.0Y-90.0
X165.0Y-95.0
X165.0Y-100.0
X165.0Y-105.0
X165.0Y-110.0
X165.0Y-115.0
X165.0Y-120.0
X165.0Y-125.0
X165.0Y-130.0
X165.0Y-135.0
X165.0Y-140.0
X165.0Y-145.0
X170.0Y-55.0
X170.0Y-60.0
X170.0Y-65.0
X170.0Y-70.0
X170.0Y-75.0
X170.0Y-80.0
X170.0Y-85.0
X170.0Y-90.0
X170.0Y-95.0
X170.0Y-100.0
X170.0Y-105.0
X170.0Y-110.0
X170.0Y-115.0
X170.0Y-120.0
X170.0Y-125.0
X170.0Y-130.0
X170.0Y-135.0
X170.0Y-140.0
X170.0Y-145.0
X175.0Y-55.0
X175.0Y-60.0
X175.0Y-65.0
X175.0Y-70.0
X175.0Y-75.0
X175.0Y-80.0
X175.0Y-85.0
X175.0Y-90.0
X175.0Y-95.0
X175.0Y-100.0
X175.0Y-105.0
X175.0Y-110.0
X175.0Y-115.0
X175.0Y-120.0
X175.0Y-125.0
X175.0Y-130.0
X175.0Y-135.0
X175.0Y-140.0
X175.0Y-145.0
X180.0Y-55.0
X180.0Y-60.0
X180.0Y-65.0
X180.0Y-70.0
X180.0Y-75.0
X180.0Y-80.0
X180.0Y-85.0
X180.0Y-90.0
X180.0Y-95.0
X180.0Y-100.0
X180.0Y-105.0
X180.0Y-110.0
X180.0Y-115.0
X180.0Y-120.0
X180.0Y-125.0
X180.0Y-130.0
X180.0Y-135.0
X180.0Y-140.0
X180.0Y-145.0
X185.0Y-55.0
X185.0Y-60.0
X185.0Y-65.0
X185.0Y-70.0
X185.0Y-75.0
X185.0Y-80.0
X185.0Y-85.0
X185.0Y-90.0
X185.0Y-95.0
X185.0Y-100.0
X185.0Y-105.0
X185.0Y-110.0
X185.0Y-115.0
X185.0Y-120.0
X185.0Y-125.0
X185.0Y-130.0
X185.0Y-135.0
X185.0Y-140.0
X185.0Y-145.0
X190.0Y-55.0
X190.0Y-60.0
X190.0Y-65.0
X190.0Y-70.0
X190.0Y-75.0
X190.0Y-80.0
X190.0Y-85.0
X190.0Y-90.0
X190.0Y-95.0
X190.0Y-100.0
X190.0Y-105.0
X190.0Y-110.0
X190.0Y-115.0
X190.0Y-120.0
X190.0Y-125.0
X190.0Y-130.0
X190.0Y-135.0
X190.0Y-140.0
X190.0Y-145.0
X195.0Y-55.0
X195.0Y-60.0
X195.0Y-65.0
X195.0Y-70.0
X195.0Y-75.0
X195.0Y-80.0
X195.0Y-85.0
X195.0Y-90.0
X195.0Y-95.0
X195.0Y-100.0
X195.0Y-105.0
X195.0Y-110.0
X195.0Y-115.0
X195.0Y-120.0
X195.0Y-125.0
X195.0Y-130.0
X195.0Y-135.0
X195.0Y-140.0
X195.0Y-145.0
X200.0Y-55.0
X200.0Y-60.0
X200.0Y-65.0
X200.0Y-70.0
X200.0Y-75.0
X200.0Y-80.0
X200.0Y-85.0
X200.0Y-90.0
X200.0Y-95.0
X200.0Y-100.0
X200.0Y-105.0
X200.0Y-110.0
X200.0Y-115.0
X200.0Y-120.0
X200.0Y-125.0
X200.0Y-130.0
X200.0Y-135.0
X200.0Y-140.0
X200.0Y-145.0
X205.0Y-55.0
X205.0Y-60.0
X205.0Y-65.0
X205.0Y-70.0
X205.0Y-75.0
X205.0Y-80.0
X205.0Y-85.0
X205.0Y-90.0
X205.0Y-95.0
X205.0Y-100.0
X205.0Y-105.0
X205.0Y-110.0
X205.0Y-115.0
X205.0Y-120.0
X205.0Y-125.0
X205.0Y-130.0
X205.0Y-135.0
X205.0Y-140.0
X205.0Y-145.0
X210.0Y-55.0
X210.0Y-60.0
X210.0Y-65.0
X210.0Y-70.0
X210.0Y-75.0
X210.0Y-80.0
X210.0Y-85.0
X210.0Y-90.0
X210.0Y-95.0
X210.0Y-100.0
X210.0Y-105.0
X210.0Y-110.0
X210.0Y-115.0
X210.0Y-120.0
X210.0Y-125.0
X210.0Y-130.0
X210.0Y-135.0
X210.0Y-140.0
X210.0Y-145.0
X215.0Y-55.0
X215.0Y-60.0
X215.0Y-65.0
X215.0Y-70.0
X215.0Y-75.0
X215.0Y-80.0
X215.0Y-85.0
X215.0Y-90.0
X215.0Y-95.0
X215.0Y-100.0
X215.0Y-105.0
X215.0Y-110.0
X215.0Y-115.0
X215.0Y-120.0
X215.0Y-125.0
X215.0Y-130.0
X215.0Y-135.0
X215.0Y-140.0
X215.0Y-145.0
X220.0Y-55.0
X220.0Y-60.0
X220.0Y-65.0
X220.0Y-70.0
X220.0Y-75.0
X220.0Y-80.0
X220.0Y-85.0
X220.0Y-90.0
X220.0Y-95.0
X220.0Y-100.0
X220.0Y-105.0
X220.0Y-110.0
X220.0Y-115.0
X220.0Y-120.0
X220.0Y-125.0
X220.0Y-130.0
X220.0Y-135.0
X220.0Y-140.0
X220.0Y-145.0
X225.0Y-55.0
X225.0Y-60.0
X225.0Y-65.0
X225.0Y-70.0
X225.0Y-75.0
X225.0Y-80.0
X225.0Y-85.0
X225.0Y-90.0
X225.0Y-95.0
X225.0Y-100.0
X225.0Y-105.0
X225.0Y-110.0
X225.0Y-115.0
X225.0Y-120.0
X225.0Y-125.0
X225.0Y-130.0
X225.0Y-135.0
X225.0Y-140.0
X225.0Y-145.0
X230.0Y-55.0
X230.0Y-60.0
X230.0Y-65.0
X230.0Y-70.0
X230.0Y-75.0
X230.0Y-80.0
X230.0Y-85.0
X230.0Y-90.0
X230.0Y-95.0
X230.0Y-100.0
X230.0Y-105.0
X230.0Y-110.0
X230.0Y-115.0
X230.0Y-120.0
X230.0Y-125.0
X230.0Y-130.0
X230.0Y-135.0
X230.0Y-140.0
X230.0Y-145.0
X235.0Y-55.0
X235.0Y-60.0
X235.0Y-65.0
X235.0Y-70.0
X235.0Y-75.0
X235.0Y-80.0
X235.0Y-85.0
X235.0Y-90.0
X235.0Y-95.0
X235.0Y-100.0
X235.0Y-105.0
X235.0Y-110.0
X235.0Y-115.0
X235.0Y-120.0
X235.0Y-125.0
X235.0Y-130.0
X235.0Y-135.0
X235.0Y-140.0
X235.0Y-145.0
X240.0Y-55.0
X240.0Y-60.0
X240.0Y-65.0
X240.0Y-70.0
X240.0Y-75.0
X240.0Y-80.0
X240.0Y-85.0
X240.0Y-90.0
X240.0Y-95.0
X240.0Y-100.0
X240.0Y-105.0
X240.0Y-110.0
X240.0Y-115.0
X240.0Y-120.0
X240.0Y-130.0
X240.0Y-140.0
X240.0Y-145.0
X245.0Y-60.0
X245.0Y-65.0
X245.0Y-70.0
X245.0Y-75.0
X245.0Y-80.0
X245.0Y-85.0
X245.0Y-90.0
X245.0Y-95.0
X245.0Y-100.0
X245.0Y-105.0
X245.0Y-110.0
X245.0Y-115.0
X245.0Y-120.0
X245.0Y-125.0
X245.0Y-130.0
X245.0Y-135.0
X245.0Y-140.0
T2
X63.3Y-72.45
X63.3Y-74.95
X75.7Y-63.3
X78.2Y-63.3
X236.45Y-127.5
X236.45Y-130.0
T3
X55.0Y-55.0
X55.0Y-145.0
X245.0Y-55.0
X245.0Y-145.0
M30
